<svg data-v-423bf9ae="" xmlns="http://www.w3.org/2000/svg" viewBox="0 0 577 90" class="iconLeftSlogan"><!----><!----><!----><g data-v-423bf9ae="" id="68938521-0cad-4f69-9cd8-8071a9773be2" fill="#000000" transform="matrix(6.109979823280842,0,0,6.109979823280842,108.04479591179066,-11.670061748471603)"><path d="M0.32 10.60L0.32 1.93L2.25 1.93L2.25 3.77L2.25 3.77Q2.25 4.70 2.21 5.76L2.21 5.76L2.21 5.78L2.24 5.78L2.24 5.78Q2.47 5.33 3.53 3.46L3.53 3.46L3.53 3.46Q4.08 2.51 4.08 2.02L4.08 2.02L4.08 1.93L6.06 1.93L6.06 1.98L6.06 1.98Q6.06 2.92 5.28 4.03L5.28 4.03L4.11 5.74L5.26 8.19L6.30 8.19L6.30 8.48L5.13 8.48L5.13 8.50L5.13 8.50Q5.41 9.11 5.50 9.23L5.50 9.23L5.71 9.23L5.71 10.12L6.01 10.12L6.01 11.72L6.01 11.72Q5.50 11.73 5.26 11.73L5.26 11.73L4.79 11.73L4.79 11.73Q4.53 11.73 4.09 11.72L4.09 11.72L4.09 10.64L3.66 10.64L3.66 9.23L3.42 9.23L3.16 8.48L5.11 8.48L5.11 8.19L3.32 8.19L3.32 8.19Q3.32 8.16 3.01 7.20L3.01 7.20L2.99 7.20L2.99 7.20Q2.82 7.51 2.33 8.19L2.33 8.19L3.16 8.19L3.16 8.48L2.25 8.48L2.25 8.96L2.13 8.96L2.13 11.20L2.25 11.20L2.25 11.70L2.25 11.70Q2.25 11.73 2.21 11.73L2.21 11.73L0.36 11.73L0.36 11.73Q0.32 11.73 0.32 11.70L0.32 11.70L0.32 10.92L1.20 10.92L1.20 10.60L0.32 10.60ZM5.31 7.69L5.31 7.69L5.41 7.69L5.41 7.69Q5.46 7.69 5.51 7.96L5.51 7.96L5.51 7.96Q5.54 7.96 5.61 7.69L5.61 7.69L5.76 7.69L5.76 8.11L5.76 8.11Q5.76 8.14 5.73 8.14L5.73 8.14L5.66 8.14L5.66 7.88L5.65 7.88L5.65 7.88Q5.65 7.90 5.56 8.14L5.56 8.14L5.51 8.14L5.51 8.14Q5.46 8.14 5.41 7.91L5.41 7.91L5.39 7.91L5.39 8.11L5.39 8.11Q5.39 8.14 5.37 8.14L5.37 8.14L5.31 8.14L5.31 8.14Q5.28 8.14 5.28 8.11L5.28 8.11L5.28 7.72L5.28 7.72Q5.28 7.69 5.31 7.69ZM2.32 8.19L1.11 8.19L1.11 8.48L2.24 8.48L2.24 8.48Q2.24 8.43 2.32 8.19L2.32 8.19ZM3.68 10.73L3.68 10.71L3.78 10.71L3.78 10.71Q3.80 10.71 3.88 10.82L3.88 10.82L3.88 10.82Q3.94 10.71 3.96 10.71L3.96 10.71L4.06 10.71L4.06 10.73L3.93 10.92L3.93 10.92Q3.96 10.93 4.08 11.14L4.08 11.14L3.94 11.14L3.88 11.01L3.88 11.01Q3.78 11.14 3.77 11.14L3.77 11.14L3.66 11.14L3.66 11.14Q3.78 10.93 3.81 10.92L3.81 10.92L3.68 10.73ZM6.90 1.96L6.90 1.96L8.83 1.96L8.83 1.96Q8.83 3.37 9.32 4.35L9.32 4.35L9.32 4.35Q9.84 5.64 10.04 6.39L10.04 6.39L10.04 6.41L10.06 6.41L10.06 6.41Q10.30 5.50 11.07 3.62L11.07 3.62L11.07 3.62Q11.27 2.72 11.27 1.96L11.27 1.96L13.08 1.96L13.08 1.96Q12.91 3.43 12.67 4.13L12.67 4.13L11.58 6.59L10.92 6.59L10.92 8.28L9.93 8.28L9.93 8.61L10.92 8.61L10.92 11.73L9.05 11.73L9.05 11.73Q9.02 11.73 9.02 11.70L9.02 11.70L9.02 10.17L8.72 10.17L8.72 7.46L9.28 7.46L9.28 7.21L8.67 7.21L8.67 7.21Q8.60 7.12 7.54 4.67L7.54 4.67L7.54 4.67Q7.10 3.68 7.10 3.49L7.10 3.49L7.90 3.49L7.90 3.14L7.03 3.14L7.03 3.14Q6.90 2.06 6.90 1.96ZM5.74 3.49L5.74 3.14L7.03 3.14L7.08 3.49L5.74 3.49ZM10.92 8.61L10.92 8.28L11.73 8.28L11.73 8.61L10.92 8.61ZM13.42 8.85L13.42 1.91L15.37 1.91L15.37 5.94L14.98 5.94L14.98 10.10L17.89 10.10L17.89 10.97L17.32 10.97L17.32 11.17L17.89 11.17L17.89 11.73L16.01 11.73L16.01 11.58L13.43 11.58L13.43 11.58Q13.42 11.42 13.42 11.33L13.42 11.33L13.42 9.14L13.91 9.14L13.91 8.85L13.42 8.85ZM17.89 11.17L17.89 10.97L18.60 10.97L18.60 11.17L17.89 11.17ZM19.28 6.80L19.28 2.00L24.07 2.00L24.07 3.60L24.07 3.60Q24.07 3.63 24.04 3.63L24.04 3.63L21.19 3.63L21.19 5.74L23.74 5.74L23.74 5.76L23.74 5.76Q23.74 5.84 23.71 6.79L23.71 6.79L23.71 6.79Q23.69 6.79 23.69 6.80L23.69 6.80L23.81 6.80L23.81 7.29L21.60 7.29L21.60 9.29L21.01 9.29L21.01 9.49L21.60 9.49L21.60 10.10L24.10 10.10L24.10 10.32L23.91 10.32L23.91 11.52L20.91 11.52L20.91 11.73L19.49 11.73L19.49 8.24L19.28 8.24L19.28 7.01L17.72 7.01L17.72 6.80L19.28 6.80ZM20.09 6.80L19.29 6.80L19.29 7.01L20.09 7.01L20.09 6.80ZM29.07 7.13L28.29 1.93L30.15 1.93L30.69 6.86L31.21 6.86L31.21 6.86Q31.22 6.79 31.66 1.93L31.66 1.93L34.00 1.93L34.00 1.93Q34.45 6.95 34.47 7.05L34.47 7.05L35.25 7.05L35.25 7.05Q35.76 2.65 35.82 1.93L35.82 1.93L37.67 1.93L36.90 7.13L36.76 7.13L36.76 8.09L35.36 8.09L35.36 8.34L36.46 8.34L36.46 9.80L35.40 9.80L35.40 11.09L35.12 11.09L35.12 11.65L33.93 11.65L33.93 8.48L33.15 8.48L33.15 7.34L33.15 7.34Q33.15 7.19 32.85 4.57L32.85 4.57L32.81 4.57L32.81 4.59L32.56 6.86L32.68 6.86L32.68 10.36L31.54 10.36L31.54 11.73L30.08 11.73L30.08 10.36L29.52 10.36L29.52 7.13L29.07 7.13ZM29.13 7.27L29.13 7.27L29.22 7.27L29.29 7.49L29.31 7.49L29.31 7.49Q29.35 7.27 29.39 7.27L29.39 7.27L29.45 7.27L29.45 7.29L29.45 7.29Q29.35 7.63 29.33 7.63L29.33 7.63L29.24 7.63L29.24 7.63Q29.24 7.58 29.13 7.27ZM29.11 7.94L29.11 7.76L29.21 7.76L29.21 8.00L29.21 8.00Q29.21 8.01 29.28 8.05L29.28 8.05L29.28 8.05Q29.34 8.03 29.34 8.00L29.34 8.00L29.34 7.76L29.44 7.76L29.44 7.94L29.44 7.94Q29.44 8.07 29.34 8.11L29.34 8.11L29.24 8.11L29.24 8.11Q29.11 8.11 29.11 7.94L29.11 7.94ZM29.11 8.56L29.11 8.24L29.35 8.24L29.35 8.24Q29.38 8.24 29.42 8.31L29.42 8.31L29.42 8.37L29.39 8.42L29.39 8.42Q29.42 8.47 29.44 8.59L29.44 8.59L29.34 8.59L29.34 8.59Q29.34 8.55 29.33 8.46L29.33 8.46L29.21 8.46L29.21 8.59L29.15 8.59L29.15 8.59Q29.11 8.59 29.11 8.56L29.11 8.56ZM29.33 8.31L29.21 8.31L29.21 8.39L29.31 8.39L29.31 8.39Q29.34 8.39 29.34 8.35L29.34 8.35L29.34 8.35Q29.33 8.32 29.33 8.31L29.33 8.31ZM29.18 9.04L29.18 8.72L29.44 8.72L29.44 8.80L29.28 8.80L29.28 8.85L29.39 8.85L29.39 8.85Q29.42 8.86 29.42 8.89L29.42 8.89L29.42 8.93L29.28 8.93L29.28 9.08L29.21 9.08L29.21 9.08Q29.18 9.08 29.18 9.04L29.18 9.04ZM29.28 9.19L29.28 9.19L29.28 9.19Q29.42 9.22 29.42 9.32L29.42 9.32L29.39 9.33L29.35 9.33L29.29 9.27L29.24 9.27L29.24 9.27Q29.18 9.30 29.18 9.38L29.18 9.38L29.18 9.38Q29.18 9.50 29.28 9.50L29.28 9.50L29.28 9.50Q29.34 9.47 29.34 9.45L29.34 9.45L29.34 9.43L29.34 9.43Q29.26 9.43 29.26 9.40L29.26 9.40L29.26 9.38L29.26 9.38Q29.26 9.35 29.29 9.35L29.29 9.35L29.42 9.35L29.42 9.56L29.40 9.56L29.40 9.56Q29.39 9.56 29.35 9.54L29.35 9.54L29.26 9.56L29.24 9.56L29.24 9.56Q29.10 9.54 29.10 9.41L29.10 9.41L29.10 9.35L29.10 9.35Q29.10 9.21 29.28 9.19ZM29.11 10.01L29.11 9.69L29.21 9.69L29.21 9.82L29.34 9.82L29.34 9.69L29.44 9.69L29.44 10.01L29.44 10.01Q29.44 10.04 29.40 10.04L29.40 10.04L29.34 10.04L29.34 9.90L29.21 9.90L29.21 10.04L29.15 10.04L29.15 10.04Q29.11 10.04 29.11 10.01L29.11 10.01ZM35.45 9.88L35.45 9.88L35.55 9.88L35.55 9.88Q35.58 10.02 35.58 10.08L35.58 10.08L35.59 10.08L35.59 10.08Q35.64 9.92 35.64 9.88L35.64 9.88L35.71 9.88L35.71 9.88Q35.75 9.88 35.77 10.09L35.77 10.09L35.79 10.09L35.79 10.09Q35.82 9.88 35.85 9.88L35.85 9.88L35.92 9.88L35.92 9.88Q35.84 10.23 35.81 10.23L35.81 10.23L35.74 10.23L35.69 10.04L35.68 10.04L35.68 10.04Q35.64 10.22 35.64 10.23L35.64 10.23L35.55 10.23L35.55 10.23Q35.52 10.10 35.45 9.88ZM35.46 10.38L35.46 10.36L35.55 10.36L35.55 10.36Q35.58 10.36 35.62 10.46L35.62 10.46L35.62 10.46Q35.64 10.46 35.68 10.36L35.68 10.36L35.77 10.36L35.77 10.38L35.68 10.53L35.68 10.53Q35.68 10.53 35.79 10.70L35.79 10.70L35.79 10.72L35.71 10.72L35.71 10.72Q35.67 10.72 35.63 10.60L35.63 10.60L35.63 10.60Q35.55 10.72 35.53 10.72L35.53 10.72L35.45 10.72L35.45 10.72Q35.45 10.71 35.57 10.54L35.57 10.54L35.57 10.53L35.46 10.38ZM37.82 6.64L37.82 1.96L39.76 1.96L39.76 5.85L41.71 5.85L41.71 1.96L43.35 1.96L43.35 7.51L42.68 7.51L42.68 7.75L43.35 7.75L43.35 11.73L41.74 11.73L41.74 11.73Q41.71 11.73 41.71 11.70L41.71 11.70L41.71 7.48L39.76 7.48L39.76 11.70L39.76 11.70Q39.76 11.73 39.72 11.73L39.72 11.73L38.10 11.73L38.10 6.64L37.82 6.64ZM43.35 7.75L43.35 7.51L44.22 7.51L44.22 7.75L43.35 7.75ZM44.68 1.96L44.68 1.96L46.60 1.96L46.60 1.96Q46.60 3.37 47.09 4.35L47.09 4.35L47.09 4.35Q47.62 5.64 47.82 6.39L47.82 6.39L47.82 6.41L47.83 6.41L47.83 6.41Q48.08 5.50 48.85 3.62L48.85 3.62L48.85 3.62Q49.05 2.72 49.05 1.96L49.05 1.96L50.85 1.96L50.85 1.96Q50.69 3.43 50.44 4.13L50.44 4.13L49.36 6.59L48.70 6.59L48.70 8.28L47.70 8.28L47.70 8.61L48.70 8.61L48.70 11.73L46.83 11.73L46.83 11.73Q46.80 11.73 46.80 11.70L46.80 11.70L46.80 10.17L46.50 10.17L46.50 7.46L47.06 7.46L47.06 7.21L46.45 7.21L46.45 7.21Q46.38 7.12 45.32 4.67L45.32 4.67L45.32 4.67Q44.87 3.68 44.87 3.49L44.87 3.49L45.68 3.49L45.68 3.14L44.81 3.14L44.81 3.14Q44.68 2.06 44.68 1.96ZM43.51 3.49L43.51 3.14L44.81 3.14L44.86 3.49L43.51 3.49ZM48.70 8.61L48.70 8.28L49.51 8.28L49.51 8.61L48.70 8.61ZM51.47 1.96L51.47 1.96L53.47 1.96L53.47 1.96Q53.51 1.96 54.11 3.53L54.11 3.53L54.11 3.53Q54.16 3.59 55.37 6.62L55.37 6.62L55.88 6.62L55.88 1.96L57.63 1.96L57.63 7.51L57.83 7.51L57.83 9.67L57.12 9.67L57.12 10.08L57.83 10.08L57.83 11.37L55.21 11.37L55.21 9.73L54.74 9.73L54.74 9.73Q53.80 7.44 53.47 6.56L53.47 6.56L53.47 4.92L53.22 4.92L53.22 9.93L52.83 9.93L52.83 11.66L51.19 11.66L51.19 7.94L51.49 7.94L51.49 7.92L51.49 7.92Q51.47 3.09 51.47 1.96ZM55.34 6.62L54.41 6.62L54.41 6.98L55.50 6.98L55.50 6.98Q55.37 6.62 55.34 6.62L55.34 6.62ZM56.69 6.62L55.90 6.62L55.90 6.98L55.51 6.98L55.51 6.98Q55.86 7.85 55.93 8.11L55.93 8.11L55.95 8.11L55.95 8.07L55.95 8.07Q55.90 7.18 55.90 6.98L55.90 6.98L56.69 6.98L56.69 6.62ZM55.21 11.73L55.21 11.55L58.37 11.55L58.37 11.73L55.21 11.73ZM62.28 1.95L62.28 1.95L62.28 1.95Q64.38 1.95 65.04 3.42L65.04 3.42L65.04 3.42Q65.42 4.14 65.42 6.19L65.42 6.19L65.42 6.23L64.70 6.23L64.70 6.56L65.42 6.56L65.42 10.10L64.94 10.10L64.94 11.37L63.99 11.37L63.99 11.73L60.67 11.73L60.67 11.37L60.27 11.37L60.27 10.10L59.41 10.10L59.41 9.10L59.92 9.10L59.92 8.57L59.41 8.57L59.41 9.10L58.20 9.10L58.20 8.57L59.12 8.57L59.12 8.57Q59.10 7.38 59.10 6.74L59.10 6.74L59.10 5.91L59.10 5.91Q59.10 3.58 59.89 2.80L59.89 2.80L59.89 2.80Q60.61 1.95 62.28 1.95ZM61.08 5.32L61.08 5.32L61.10 5.32L61.08 5.35L61.08 6.23L60.35 6.23L60.35 6.56L61.08 6.56L61.08 6.56Q61.07 8.67 61.07 9.75L61.07 9.75L61.07 10.10L62.70 10.10L62.70 9.56L63.45 9.56L63.45 9.54L63.45 9.54Q63.45 8.54 63.44 6.75L63.44 6.75L63.44 6.75Q63.44 6.68 63.45 6.38L63.45 6.38L63.45 6.38Q63.45 4.45 63.23 4.01L63.23 4.01L63.23 4.01Q62.99 3.58 62.37 3.58L62.37 3.58L62.13 3.58L62.13 3.58Q61.39 3.58 61.21 4.24L61.21 4.24L61.21 4.24Q61.13 4.56 61.08 5.32ZM65.42 6.56L65.42 6.23L66.60 6.23L66.60 6.56L65.42 6.56ZM65.86 3.57L65.86 1.93L71.61 1.93L71.61 3.57L69.71 3.57L69.71 10.34L70.57 10.34L70.57 10.54L69.71 10.54L69.71 11.29L69.19 11.29L69.19 11.55L69.56 11.55L69.56 11.73L67.81 11.73L67.81 11.73Q67.78 11.73 67.78 11.70L67.78 11.70L67.78 3.57L65.86 3.57ZM69.69 10.34L69.03 10.34L69.03 10.54L69.69 10.54L69.69 10.34ZM70.90 3.57L70.90 1.93L76.64 1.93L76.64 3.57L74.74 3.57L74.74 10.34L75.60 10.34L75.60 10.54L74.74 10.54L74.74 11.29L74.22 11.29L74.22 11.55L74.59 11.55L74.59 11.73L72.84 11.73L72.84 11.73Q72.81 11.73 72.81 11.70L72.81 11.70L72.81 3.57L70.90 3.57ZM74.72 10.34L74.06 10.34L74.06 10.54L74.72 10.54L74.72 10.34Z"></path></g><defs data-v-423bf9ae=""><linearGradient data-v-423bf9ae="" gradientTransform="rotate(25)" id="878b3277-63ac-4b27-bfe1-9d770337e073" x1="0%" y1="0%" x2="100%" y2="0%"><stop data-v-423bf9ae="" offset="0%" style="stop-color: rgb(233, 13, 218); stop-opacity: 1;"></stop><stop data-v-423bf9ae="" offset="100%" style="stop-color: rgb(21, 207, 241); stop-opacity: 1;"></stop></linearGradient></defs><g data-v-423bf9ae="" id="999eea4b-a2a0-4db7-885a-d264b6c432bb" transform="matrix(2.8125,0,0,2.8125,0,0)" stroke="none" fill="url(#878b3277-63ac-4b27-bfe1-9d770337e073)"><path d="M9.382 8.675h13.943v13.943L32 31.293V0H.707zM22.618 23.325H8.675V9.382L0 .707V32h31.293z"></path></g><!----><g data-v-423bf9ae="" id="1248e4ed-3d5f-4c46-b052-8bf27633519c" fill="#000000" transform="matrix(1.7712878093036062,0,0,1.7712878093036062,109.38005439390864,55.96146349832473)"><path d="M0.35 10.04L0.35 10.04L0.84 9.98L1.03 10.85L1.03 10.85Q1.13 11.33 1.20 11.41L1.20 11.41L1.20 11.41Q1.27 11.49 1.68 11.64L1.68 11.64L1.68 11.64Q2.52 11.95 3.42 11.95L3.42 11.95L3.42 11.95Q4.20 11.95 4.74 11.49L4.74 11.49L4.74 11.49Q5.28 11.04 5.28 10.26L5.28 10.26L5.28 10.26Q5.28 9.65 4.82 9.21L4.82 9.21L4.82 9.21Q4.34 8.76 3.49 8.30L3.49 8.30L2.91 7.98L2.91 7.98Q2.17 7.55 1.93 7.36L1.93 7.36L1.93 7.36Q1.57 7.08 1.26 6.59L1.26 6.59L1.26 6.59Q0.95 6.10 0.95 5.46L0.95 5.46L0.95 5.46Q0.95 4.39 1.79 3.68L1.79 3.68L1.79 3.68Q2.63 2.97 3.74 2.97L3.74 2.97L3.74 2.97Q4.02 2.97 4.37 3.04L4.37 3.04L4.37 3.04Q4.57 3.08 4.90 3.17L4.90 3.17L5.14 3.25L5.14 3.25Q5.24 3.25 5.28 3.16L5.28 3.16L5.28 3.16Q5.33 3.05 5.33 2.98L5.33 2.98L5.35 2.88L5.82 2.85L6.04 5.41L5.53 5.43L5.41 4.18L5.41 4.18Q4.66 3.62 3.50 3.62L3.50 3.62L3.50 3.62Q2.86 3.62 2.35 4.05L2.35 4.05L2.35 4.05Q1.87 4.47 1.87 5.12L1.87 5.12L1.87 5.12Q1.87 5.72 2.32 6.17L2.32 6.17L2.32 6.17Q2.75 6.60 3.62 7.08L3.62 7.08L4.40 7.50L4.40 7.50Q5.35 8.03 5.88 8.59L5.88 8.59L5.88 8.59Q6.41 9.15 6.41 9.92L6.41 9.92L6.41 9.92Q6.41 10.99 5.56 11.76L5.56 11.76L5.56 11.76Q4.69 12.54 3.23 12.54L3.23 12.54L3.23 12.54Q2.67 12.54 2.17 12.41L2.17 12.41L2.17 12.41Q1.67 12.29 1.61 12.29L1.61 12.29L1.61 12.29Q1.36 12.29 1.36 12.58L1.36 12.58L1.37 12.76L0.90 12.80L0.90 12.80Q0.83 12.41 0.35 10.04ZM14.57 9.69L14.57 9.69L14.57 9.69Q14.57 8.48 15.27 7.66L15.27 7.66L15.27 7.66Q16.00 6.80 17.34 6.80L17.34 6.80L17.34 6.80Q18.03 6.80 18.55 7.01L18.55 7.01L18.55 7.01Q19.13 7.25 19.40 7.51L19.40 7.51L19.40 7.51Q19.71 7.82 19.92 8.24L19.92 8.24L19.92 8.24Q20.10 8.61 20.19 9.05L20.19 9.05L20.19 9.05Q20.28 9.43 20.28 9.84L20.28 9.84L20.28 9.84Q20.28 11.03 19.48 11.83L19.48 11.83L19.48 11.83Q18.68 12.63 17.37 12.63L17.37 12.63L17.37 12.63Q16.04 12.63 15.30 11.74L15.30 11.74L15.30 11.74Q14.57 10.88 14.57 9.69ZM15.69 9.34L15.69 9.34L15.69 9.34Q15.69 10.38 16.22 11.24L16.22 11.24L16.22 11.24Q16.74 12.08 17.55 12.08L17.55 12.08L17.55 12.08Q18.35 12.08 18.73 11.42L18.73 11.42L18.73 11.42Q19.11 10.76 19.11 9.80L19.11 9.80L19.11 9.80Q19.11 8.57 18.57 7.94L18.57 7.94L18.57 7.94Q18.03 7.28 17.21 7.27L17.21 7.27L17.21 7.27Q16.56 7.27 16.13 7.82L16.13 7.82L16.13 7.82Q15.69 8.35 15.69 9.34ZM28.87 7.59L27.85 7.59L28.01 6.92L28.87 6.92L28.87 5.41L28.87 5.41Q28.87 5.04 28.88 4.89L28.88 4.89L28.88 4.89Q28.92 4.55 28.97 4.33L28.97 4.33L28.97 4.33Q29.04 4.01 29.19 3.69L29.19 3.69L29.19 3.69Q29.29 3.47 29.60 3.12L29.60 3.12L29.60 3.12Q29.88 2.80 30.24 2.57L30.24 2.57L30.24 2.57Q30.72 2.28 31.40 2.28L31.40 2.28L31.40 2.28Q31.87 2.28 32.18 2.40L32.18 2.40L32.18 2.40Q32.48 2.53 32.48 2.78L32.48 2.78L32.48 2.78Q32.48 2.98 32.22 3.33L32.22 3.33L32.22 3.33Q31.94 3.69 31.75 3.69L31.75 3.69L31.75 3.69Q31.65 3.69 31.54 3.48L31.54 3.48L31.54 3.48Q31.43 3.24 31.28 3.06L31.28 3.06L31.28 3.06Q31.11 2.85 30.90 2.85L30.90 2.85L30.90 2.85Q30.54 2.85 30.31 3.12L30.31 3.12L30.31 3.12Q30.07 3.40 29.99 3.83L29.99 3.83L29.99 3.83Q29.89 4.34 29.88 4.55L29.88 4.55L29.88 4.55Q29.85 4.91 29.85 5.08L29.85 5.08L29.85 6.92L31.42 6.92L31.27 7.59L29.85 7.59L29.85 11.55L29.85 11.55Q29.85 11.83 29.98 11.89L29.98 11.89L29.98 11.89Q30.11 11.96 30.73 11.96L30.73 11.96L30.93 11.96L30.91 12.41L28 12.41L27.99 11.96L28.28 11.96L28.28 11.96Q28.64 11.96 28.76 11.89L28.76 11.89L28.76 11.89Q28.87 11.83 28.87 11.59L28.87 11.59L28.87 7.59ZM38.89 7.58L38.89 7.58L38.89 7.58Q38.89 7.55 39.00 7.40L39.00 7.40L39.00 7.40Q39.07 7.31 39.37 7.01L39.37 7.01L39.37 7.01Q39.53 6.85 39.69 6.64L39.69 6.64L40.08 6.17L40.46 5.71L40.46 5.71Q40.58 5.54 40.63 5.54L40.63 5.54L40.63 5.54Q40.71 5.54 40.71 5.64L40.71 5.64L40.71 7.03L42.60 7.03L42.51 7.70L40.71 7.70L40.71 10.96L40.71 10.96Q40.71 11.79 41.65 11.79L41.65 11.79L41.65 11.79Q41.89 11.79 42.14 11.72L42.14 11.72L42.14 11.72Q42.37 11.66 42.51 11.59L42.51 11.59L42.51 11.59Q42.55 11.57 42.59 11.55L42.59 11.55L42.59 11.55Q42.63 11.53 42.65 11.53L42.65 11.53L42.67 11.52L42.67 11.52Q42.77 11.52 42.77 11.66L42.77 11.66L42.77 11.66Q42.77 11.95 42.21 12.26L42.21 12.26L42.21 12.26Q41.65 12.57 41.10 12.57L41.10 12.57L41.10 12.57Q40.39 12.57 40.07 12.16L40.07 12.16L40.07 12.16Q39.73 11.74 39.73 11.07L39.73 11.07L39.73 7.70L39.06 7.70L39.06 7.70Q38.89 7.69 38.89 7.58ZM50.23 7.38L50.23 7.38L50.23 6.92L53.17 6.92L53.16 7.38L52.73 7.38L52.73 7.38Q52.32 7.38 52.32 7.62L52.32 7.62L52.32 7.62Q52.32 7.74 52.45 8.06L52.45 8.06L53.76 11.09L55.24 7.86L55.24 7.86Q55.12 7.53 54.97 7.46L54.97 7.46L54.97 7.46Q54.82 7.38 54.52 7.38L54.52 7.38L54.00 7.38L53.97 6.92L56.99 6.92L56.99 7.38L56.99 7.38Q56.54 7.38 56.39 7.42L56.39 7.42L56.39 7.42Q56.25 7.46 56.25 7.58L56.25 7.58L56.25 7.58Q56.25 7.65 56.38 7.99L56.38 7.99L57.67 11.08L59.17 7.92L59.17 7.92Q59.28 7.66 59.29 7.57L59.29 7.57L59.29 7.57Q59.29 7.37 58.67 7.38L58.67 7.38L58.31 7.38L58.31 6.92L60.79 6.92L60.80 7.38L60.80 7.38Q60.48 7.38 60.40 7.39L60.40 7.39L60.40 7.39Q60.27 7.41 60.10 7.51L60.10 7.51L60.10 7.51Q59.94 7.61 59.83 7.83L59.83 7.83L57.51 12.65L57.20 12.64L55.51 8.46L53.61 12.67L53.32 12.65L51.38 8.13L51.38 8.13Q51.11 7.54 51.03 7.47L51.03 7.47L51.03 7.47Q50.89 7.38 50.23 7.38ZM68.39 11.50L68.39 11.50L68.39 11.50Q68.39 10.64 69.21 10.01L69.21 10.01L69.21 10.01Q70.05 9.37 71.21 9.37L71.21 9.37L71.21 8.52L71.21 8.52Q71.21 8.03 71.04 7.78L71.04 7.78L71.04 7.78Q70.88 7.53 70.27 7.53L70.27 7.53L70.27 7.53Q69.35 7.55 69.14 7.96L69.14 7.96L69.14 7.96Q69.17 8.10 69.19 8.19L69.19 8.19L69.19 8.19Q69.21 8.24 69.23 8.33L69.23 8.33L69.25 8.42L69.25 8.42Q69.28 8.53 69.28 8.58L69.28 8.58L69.28 8.58Q69.28 8.75 69.11 8.85L69.11 8.85L69.11 8.85Q68.95 8.94 68.83 8.94L68.83 8.94L68.83 8.94Q68.51 8.94 68.51 8.44L68.51 8.44L68.51 8.44Q68.51 8.25 68.61 8.05L68.61 8.05L68.61 8.05Q68.71 7.79 68.95 7.54L68.95 7.54L68.95 7.54Q69.22 7.25 69.74 7.07L69.74 7.07L69.74 7.07Q70.29 6.87 70.96 6.87L70.96 6.87L70.96 6.87Q71.18 6.87 71.29 6.90L71.29 6.90L71.29 6.90Q71.48 6.94 71.69 7.04L71.69 7.04L71.69 7.04Q71.89 7.14 72.05 7.40L72.05 7.40L72.05 7.40Q72.19 7.64 72.19 7.99L72.19 7.99L72.19 10.61L72.19 10.61Q72.19 11.12 72.37 11.44L72.37 11.44L72.37 11.44Q72.54 11.73 73.10 11.88L73.10 11.88L73.10 11.88Q73.22 11.92 73.23 12.00L73.23 12.00L73.23 12.00Q73.23 12.08 73.10 12.15L73.10 12.15L73.10 12.15Q72.41 12.61 72.26 12.65L72.26 12.65L72.26 12.65Q72.04 12.48 71.93 12.39L71.93 12.39L71.73 12.17L71.52 11.92L71.52 11.92Q71.48 11.88 71.44 11.82L71.44 11.82L71.44 11.82Q71.39 11.76 71.36 11.72L71.36 11.72L71.36 11.72Q71.33 11.69 71.32 11.67L71.32 11.67L71.32 11.67Q71.08 12.00 70.58 12.30L70.58 12.30L70.58 12.30Q70.13 12.57 69.69 12.57L69.69 12.57L69.69 12.57Q69.18 12.57 68.79 12.30L68.79 12.30L68.79 12.30Q68.39 12.04 68.39 11.50ZM69.38 11.09L69.38 11.09L69.38 11.09Q69.38 11.39 69.59 11.60L69.59 11.60L69.59 11.60Q69.79 11.81 70.22 11.81L70.22 11.81L70.22 11.81Q70.75 11.81 70.98 11.57L70.98 11.57L70.98 11.57Q71.21 11.35 71.21 11.04L71.21 11.04L71.21 9.74L71.21 9.74Q70.40 9.74 69.89 10.16L69.89 10.16L69.89 10.16Q69.38 10.59 69.38 11.09ZM80.60 7.63L80.56 7.19L80.56 7.19Q81.33 7.03 82.61 6.73L82.61 6.73L82.61 8.31L82.67 8.19L82.67 8.19Q82.69 8.15 82.71 8.10L82.71 8.10L82.71 8.10Q82.74 8.06 82.78 8.01L82.78 8.01L82.78 8.01Q82.82 7.96 82.83 7.92L82.83 7.92L82.83 7.92Q82.90 7.81 83.06 7.58L83.06 7.58L83.06 7.58Q83.21 7.39 83.36 7.25L83.36 7.25L83.36 7.25Q83.48 7.12 83.71 6.99L83.71 6.99L83.71 6.99Q83.91 6.88 84.10 6.88L84.10 6.88L84.10 6.88Q84.33 6.88 84.55 6.98L84.55 6.98L84.55 6.98Q84.74 7.06 84.80 7.15L84.80 7.15L84.88 7.23L84.34 8.62L84.12 8.54L84.12 8.35L84.12 8.35Q84.12 8.03 83.78 8.03L83.78 8.03L83.78 8.03Q83.42 8.03 83.03 8.34L83.03 8.34L83.03 8.34Q82.63 8.65 82.63 9.02L82.63 9.02L82.63 11.39L82.63 11.39Q82.63 11.78 82.77 11.87L82.77 11.87L82.77 11.87Q82.94 11.96 83.51 11.96L83.51 11.96L84.12 11.96L84.12 12.41L80.77 12.41L80.77 11.96L81.03 11.96L81.03 11.96Q81.44 11.96 81.55 11.88L81.55 11.88L81.55 11.88Q81.65 11.80 81.66 11.39L81.66 11.39L81.66 7.98L81.66 7.98Q81.66 7.66 81.62 7.58L81.62 7.58L81.62 7.58Q81.58 7.47 81.46 7.47L81.46 7.47L81.46 7.47Q81.44 7.47 81.36 7.49L81.36 7.49L81.36 7.49Q81.27 7.50 81.04 7.54L81.04 7.54L81.04 7.54Q80.81 7.58 80.60 7.63L80.60 7.63ZM92.43 9.85L92.43 9.85L92.43 9.85Q92.43 8.49 93.13 7.67L93.13 7.67L93.13 7.67Q93.84 6.83 94.91 6.83L94.91 6.83L94.91 6.83Q95.95 6.83 96.59 7.47L96.59 7.47L96.59 7.47Q97.23 8.11 97.23 8.62L97.23 8.62L97.23 8.62Q97.23 8.72 97.16 8.77L97.16 8.77L97.16 8.77Q97.09 8.83 97.01 8.83L97.01 8.83L93.50 9.25L93.50 9.33L93.50 9.33Q93.50 9.36 93.49 9.40L93.49 9.40L93.49 9.40Q93.48 9.43 93.48 9.45L93.48 9.45L93.48 9.45Q93.48 10.49 94.07 11.07L94.07 11.07L94.07 11.07Q94.64 11.64 95.55 11.64L95.55 11.64L95.55 11.64Q96.04 11.64 96.45 11.48L96.45 11.48L96.45 11.48Q96.88 11.29 97.09 11.16L97.09 11.16L97.09 11.16Q97.34 10.99 97.41 10.99L97.41 10.99L97.41 10.99Q97.54 10.99 97.54 11.16L97.54 11.16L97.54 11.16Q97.54 11.34 97.23 11.64L97.23 11.64L97.23 11.64Q96.90 11.98 96.30 12.28L96.30 12.28L96.30 12.28Q95.66 12.60 94.99 12.60L94.99 12.60L94.99 12.60Q94.29 12.60 93.78 12.33L93.78 12.33L93.78 12.33Q93.23 12.05 92.96 11.61L92.96 11.61L92.96 11.61Q92.67 11.14 92.56 10.75L92.56 10.75L92.56 10.75Q92.43 10.32 92.43 9.85ZM93.52 8.76L93.52 8.76L95.93 8.45L95.93 8.45Q95.93 8.44 95.92 8.39L95.92 8.39L95.92 8.39Q95.90 8.35 95.89 8.33L95.89 8.33L95.89 8.33Q95.87 8.31 95.83 8.22L95.83 8.22L95.83 8.22Q95.78 8.13 95.73 8.05L95.73 8.05L95.73 8.05Q95.62 7.83 95.51 7.70L95.51 7.70L95.51 7.70Q95.40 7.57 95.18 7.43L95.18 7.43L95.18 7.43Q94.96 7.31 94.77 7.30L94.77 7.30L94.77 7.30Q94.34 7.30 93.98 7.70L93.98 7.70L93.98 7.70Q93.62 8.10 93.52 8.76ZM114.82 3.64L114.80 3.08L122.01 3.08L122.01 3.08Q122.03 4.14 122.08 5.28L122.08 5.28L121.54 5.30L121.54 5.30Q121.52 4.66 121.47 4.25L121.47 4.25L121.47 4.25Q121.43 3.89 121.37 3.80L121.37 3.80L121.37 3.80Q121.32 3.71 121.20 3.69L121.20 3.69L121.20 3.69Q121.11 3.68 120.52 3.68L120.52 3.68L118.14 3.68L118.14 3.68Q117.59 3.68 117.45 3.77L117.45 3.77L117.45 3.77Q117.33 3.86 117.33 4.33L117.33 4.33L117.33 6.28L117.33 6.28Q117.33 6.69 117.38 6.76L117.38 6.76L117.38 6.76Q117.45 6.84 117.79 6.84L117.79 6.84L119.90 6.84L119.90 6.84Q120.26 6.84 120.35 6.73L120.35 6.73L120.35 6.73Q120.43 6.63 120.44 6.14L120.44 6.14L120.44 5.61L120.95 5.63L120.95 8.97L120.44 8.97L120.44 8.24L120.44 8.24Q120.44 7.66 120.36 7.57L120.36 7.57L120.36 7.57Q120.28 7.46 119.93 7.46L119.93 7.46L117.83 7.46L117.83 7.46Q117.50 7.46 117.41 7.54L117.41 7.54L117.41 7.54Q117.33 7.63 117.33 7.89L117.33 7.89L117.33 11.20L117.33 11.20Q117.33 11.57 117.41 11.67L117.41 11.67L117.41 11.67Q117.50 11.77 117.77 11.77L117.77 11.77L117.77 11.77Q120.69 11.75 121.21 11.69L121.21 11.69L121.21 11.69Q121.73 11.63 121.82 11.38L121.82 11.38L121.82 11.36L121.83 11.35L122.06 10.17L122.53 10.25L122.19 12.41L115.08 12.41L115.08 11.87L115.45 11.87L115.45 11.87Q116.01 11.87 116.09 11.80L116.09 11.80L116.09 11.80Q116.19 11.72 116.19 11.33L116.19 11.33L116.19 4.24L116.19 4.24Q116.19 3.82 116.04 3.73L116.04 3.73L116.04 3.73Q115.87 3.64 115.21 3.64L115.21 3.64L114.82 3.64ZM130.29 12.41L130.27 11.96L130.41 11.96L130.41 11.96Q130.86 11.96 130.96 11.89L130.96 11.89L130.96 11.89Q131.04 11.83 131.04 11.49L131.04 11.49L131.04 8.16L131.04 8.16Q131.04 7.70 131.00 7.58L131.00 7.58L131.00 7.58Q130.96 7.46 130.83 7.46L130.83 7.46L130.78 7.47L130.78 7.47Q130.72 7.49 130.58 7.51L130.58 7.51L130.58 7.51Q130.44 7.54 130.30 7.57L130.30 7.57L130.30 7.14L132.02 6.79L132.02 6.79Q131.98 7.29 131.98 7.78L131.98 7.78L132.02 7.75L132.02 7.75Q132.06 7.71 132.16 7.65L132.16 7.65L132.16 7.65Q132.25 7.58 132.34 7.51L132.34 7.51L132.34 7.51Q132.68 7.26 133.13 7.08L133.13 7.08L133.13 7.08Q133.61 6.88 134.09 6.88L134.09 6.88L134.09 6.88Q134.43 6.88 134.65 6.97L134.65 6.97L134.65 6.97Q134.89 7.05 135.03 7.23L135.03 7.23L135.03 7.23Q135.14 7.39 135.26 7.59L135.26 7.59L135.26 7.59Q135.32 7.72 135.37 8.07L135.37 8.07L135.37 8.07Q135.41 8.39 135.41 8.58L135.41 8.58L135.41 8.58Q135.41 8.63 135.41 8.81L135.41 8.81L135.41 8.81Q135.42 9.00 135.42 9.14L135.42 9.14L135.42 11.55L135.42 11.55Q135.42 11.83 135.58 11.89L135.58 11.89L135.58 11.89Q135.75 11.96 136.27 11.96L136.27 11.96L136.26 12.41L133.66 12.41L133.64 11.96L133.96 11.96L133.96 11.96Q134.26 11.96 134.36 11.89L134.36 11.89L134.36 11.89Q134.44 11.83 134.44 11.55L134.44 11.55L134.44 8.73L134.44 8.73Q134.44 8.13 134.23 7.91L134.23 7.91L134.23 7.91Q134.02 7.67 133.53 7.67L133.53 7.67L133.53 7.67Q133.27 7.67 132.86 7.78L132.86 7.78L132.86 7.78Q132.47 7.89 132.26 8.00L132.26 8.00L132.02 8.11L132.02 11.49L132.02 11.49Q132.02 11.83 132.14 11.89L132.14 11.89L132.14 11.89Q132.25 11.96 132.86 11.96L132.86 11.96L133.04 11.96L133.01 12.41L130.29 12.41ZM143.39 14.55L143.39 14.55L143.39 14.55Q143.39 13.45 144.83 12.87L144.83 12.87L145.33 12.69L145.33 12.69Q145.24 12.69 145.18 12.68L145.18 12.68L145.18 12.68Q145.15 12.68 145.05 12.65L145.05 12.65L145.05 12.65Q144.94 12.61 144.86 12.58L144.86 12.58L144.86 12.58Q144.70 12.54 144.45 12.43L144.45 12.43L144.45 12.43Q144.27 12.35 144.13 12.19L144.13 12.19L144.13 12.19Q143.97 12.00 143.98 11.83L143.98 11.83L143.98 11.83Q143.98 11.21 145.09 10.88L145.09 10.88L145.28 10.83L145.28 10.83Q145.26 10.83 145.22 10.82L145.22 10.82L145.22 10.82Q145.17 10.80 145.14 10.79L145.14 10.79L145.14 10.79Q145.07 10.76 144.82 10.60L144.82 10.60L144.82 10.60Q144.63 10.49 144.42 10.25L144.42 10.25L144.42 10.25Q144.24 10.04 144.10 9.70L144.10 9.70L144.10 9.70Q143.96 9.37 143.96 8.93L143.96 8.93L143.96 8.93Q143.96 8.07 144.63 7.44L144.63 7.44L144.63 7.44Q145.30 6.82 146.17 6.82L146.17 6.82L146.17 6.82Q146.79 6.82 147.29 7.11L147.29 7.11L147.29 7.11Q147.77 7.39 148.22 7.39L148.22 7.39L148.22 7.39Q148.46 7.39 148.61 7.33L148.61 7.33L148.61 7.33Q148.80 7.27 148.82 7.23L148.82 7.23L148.82 7.23Q148.89 7.16 148.95 7.07L148.95 7.07L149.02 6.91L149.31 6.91L149.31 7.26L149.31 7.26Q149.31 7.77 149.23 7.89L149.23 7.89L149.23 7.89Q149.14 8.02 148.75 8.02L148.75 8.02L148.52 8.02L148.52 8.02Q148.15 8.02 148.15 8.06L148.15 8.06L148.15 8.06Q148.15 8.10 148.23 8.20L148.23 8.20L148.23 8.20Q148.32 8.30 148.40 8.52L148.40 8.52L148.40 8.52Q148.47 8.70 148.47 9.02L148.47 9.02L148.47 9.02Q148.47 9.84 147.83 10.40L147.83 10.40L147.83 10.40Q147.17 10.97 146.17 10.97L146.17 10.97L146.17 10.97Q145.61 10.97 145.29 11.09L145.29 11.09L145.29 11.09Q144.97 11.22 144.97 11.48L144.97 11.48L144.97 11.48Q144.97 11.59 145.04 11.69L145.04 11.69L145.04 11.69Q145.09 11.76 145.26 11.79L145.26 11.79L145.26 11.79Q145.28 11.79 145.38 11.81L145.38 11.81L145.38 11.81Q145.49 11.83 145.54 11.83L145.54 11.83L145.88 11.83L145.93 11.83L146.40 11.83L146.40 11.83Q146.51 11.83 146.68 11.82L146.68 11.82L146.68 11.82Q146.84 11.81 146.89 11.81L146.89 11.81L146.89 11.81Q149.44 11.81 149.43 13.38L149.43 13.38L149.43 13.38Q149.43 14.42 148.36 15.26L148.36 15.26L148.36 15.26Q147.29 16.10 145.67 16.10L145.67 16.10L145.67 16.10Q144.77 16.10 144.09 15.70L144.09 15.70L144.09 15.70Q143.39 15.30 143.39 14.55ZM144.46 14.39L144.46 14.39L144.46 14.39Q144.46 14.87 144.87 15.16L144.87 15.16L144.87 15.16Q145.27 15.45 146.09 15.45L146.09 15.45L146.09 15.45Q147 15.45 147.73 15.00L147.73 15.00L147.73 15.00Q148.46 14.55 148.46 13.76L148.46 13.76L148.46 13.76Q148.46 12.72 146.71 12.72L146.71 12.72L146.71 12.72Q145.76 12.72 145.11 13.25L145.11 13.25L145.11 13.25Q144.46 13.79 144.46 14.39ZM145.13 8.83L145.13 8.83L145.13 8.83Q145.13 9.65 145.48 10.09L145.48 10.09L145.48 10.09Q145.82 10.54 146.29 10.54L146.29 10.54L146.29 10.54Q146.69 10.54 146.99 10.16L146.99 10.16L146.99 10.16Q147.28 9.78 147.28 9.07L147.28 9.07L147.28 9.07Q147.28 8.26 146.95 7.80L146.95 7.80L146.95 7.80Q146.61 7.33 146.13 7.33L146.13 7.33L146.13 7.33Q145.71 7.33 145.42 7.72L145.42 7.72L145.42 7.72Q145.13 8.13 145.13 8.83ZM157.12 7.57L157.10 7.15L157.10 7.15Q158.14 6.98 159.08 6.73L159.08 6.73L159.08 11.59L159.08 11.59Q159.08 11.83 159.20 11.89L159.20 11.89L159.20 11.89Q159.34 11.96 159.95 11.96L159.95 11.96L160.20 11.96L160.20 12.41L157.16 12.41L157.16 11.96L157.29 11.96L157.29 11.96Q157.83 11.96 157.96 11.91L157.96 11.91L157.96 11.91Q158.09 11.85 158.10 11.64L158.10 11.64L158.10 7.91L158.10 7.91Q158.10 7.64 158.06 7.55L158.06 7.55L158.06 7.55Q158.02 7.46 157.89 7.46L157.89 7.46L157.89 7.46Q157.72 7.46 157.12 7.57L157.12 7.57ZM158.16 4.09L158.16 4.09L158.16 4.09Q158.16 3.92 158.38 3.72L158.38 3.72L158.38 3.72Q158.60 3.51 158.74 3.51L158.74 3.51L158.74 3.51Q158.88 3.51 159.11 3.73L159.11 3.73L159.11 3.73Q159.35 3.97 159.35 4.11L159.35 4.11L159.35 4.11Q159.35 4.25 159.11 4.49L159.11 4.49L159.11 4.49Q158.87 4.73 158.74 4.73L158.74 4.73L158.74 4.73Q158.56 4.73 158.35 4.48L158.35 4.48L158.35 4.48Q158.16 4.23 158.16 4.09ZM167.67 12.41L167.66 11.96L167.79 11.96L167.79 11.96Q168.25 11.96 168.34 11.89L168.34 11.89L168.34 11.89Q168.42 11.83 168.42 11.49L168.42 11.49L168.42 8.16L168.42 8.16Q168.42 7.70 168.38 7.58L168.38 7.58L168.38 7.58Q168.34 7.46 168.22 7.46L168.22 7.46L168.16 7.47L168.16 7.47Q168.11 7.49 167.97 7.51L167.97 7.51L167.97 7.51Q167.82 7.54 167.69 7.57L167.69 7.57L167.69 7.14L169.41 6.79L169.41 6.79Q169.37 7.29 169.37 7.78L169.37 7.78L169.41 7.75L169.41 7.75Q169.45 7.71 169.54 7.65L169.54 7.65L169.54 7.65Q169.63 7.58 169.73 7.51L169.73 7.51L169.73 7.51Q170.06 7.26 170.52 7.08L170.52 7.08L170.52 7.08Q170.99 6.88 171.48 6.88L171.48 6.88L171.48 6.88Q171.81 6.88 172.04 6.97L172.04 6.97L172.04 6.97Q172.28 7.05 172.42 7.23L172.42 7.23L172.42 7.23Q172.53 7.39 172.64 7.59L172.64 7.59L172.64 7.59Q172.71 7.72 172.75 8.07L172.75 8.07L172.75 8.07Q172.79 8.39 172.79 8.58L172.79 8.58L172.79 8.58Q172.79 8.63 172.80 8.81L172.80 8.81L172.80 8.81Q172.81 9.00 172.81 9.14L172.81 9.14L172.81 11.55L172.81 11.55Q172.81 11.83 172.96 11.89L172.96 11.89L172.96 11.89Q173.13 11.96 173.66 11.96L173.66 11.96L173.65 12.41L171.04 12.41L171.03 11.96L171.35 11.96L171.35 11.96Q171.64 11.96 171.75 11.89L171.75 11.89L171.75 11.89Q171.83 11.83 171.83 11.55L171.83 11.55L171.83 8.73L171.83 8.73Q171.83 8.13 171.62 7.91L171.62 7.91L171.62 7.91Q171.40 7.67 170.92 7.67L170.92 7.67L170.92 7.67Q170.65 7.67 170.25 7.78L170.25 7.78L170.25 7.78Q169.86 7.89 169.65 8.00L169.65 8.00L169.41 8.11L169.41 11.49L169.41 11.49Q169.41 11.83 169.52 11.89L169.52 11.89L169.52 11.89Q169.63 11.96 170.25 11.96L170.25 11.96L170.43 11.96L170.40 12.41L167.67 12.41ZM181.22 9.85L181.22 9.85L181.22 9.85Q181.22 8.49 181.92 7.67L181.92 7.67L181.92 7.67Q182.64 6.83 183.70 6.83L183.70 6.83L183.70 6.83Q184.74 6.83 185.38 7.47L185.38 7.47L185.38 7.47Q186.03 8.11 186.03 8.62L186.03 8.62L186.03 8.62Q186.03 8.72 185.95 8.77L185.95 8.77L185.95 8.77Q185.88 8.83 185.80 8.83L185.80 8.83L182.29 9.25L182.29 9.33L182.29 9.33Q182.29 9.36 182.28 9.40L182.28 9.40L182.28 9.40Q182.27 9.43 182.27 9.45L182.27 9.45L182.27 9.45Q182.27 10.49 182.86 11.07L182.86 11.07L182.86 11.07Q183.44 11.64 184.34 11.64L184.34 11.64L184.34 11.64Q184.84 11.64 185.24 11.48L185.24 11.48L185.24 11.48Q185.67 11.29 185.88 11.16L185.88 11.16L185.88 11.16Q186.14 10.99 186.20 10.99L186.20 10.99L186.20 10.99Q186.33 10.99 186.33 11.16L186.33 11.16L186.33 11.16Q186.33 11.34 186.03 11.64L186.03 11.64L186.03 11.64Q185.69 11.98 185.10 12.28L185.10 12.28L185.10 12.28Q184.45 12.60 183.78 12.60L183.78 12.60L183.78 12.60Q183.09 12.60 182.57 12.33L182.57 12.33L182.57 12.33Q182.02 12.05 181.75 11.61L181.75 11.61L181.75 11.61Q181.46 11.14 181.35 10.75L181.35 10.75L181.35 10.75Q181.22 10.32 181.22 9.85ZM182.31 8.76L182.31 8.76L184.72 8.45L184.72 8.45Q184.72 8.44 184.71 8.39L184.71 8.39L184.71 8.39Q184.69 8.35 184.68 8.33L184.68 8.33L184.68 8.33Q184.67 8.31 184.62 8.22L184.62 8.22L184.62 8.22Q184.57 8.13 184.52 8.05L184.52 8.05L184.52 8.05Q184.41 7.83 184.30 7.70L184.30 7.70L184.30 7.70Q184.19 7.57 183.97 7.43L183.97 7.43L183.97 7.43Q183.76 7.31 183.56 7.30L183.56 7.30L183.56 7.30Q183.13 7.30 182.77 7.70L182.77 7.70L182.77 7.70Q182.41 8.10 182.31 8.76ZM193.98 9.85L193.98 9.85L193.98 9.85Q193.98 8.49 194.69 7.67L194.69 7.67L194.69 7.67Q195.40 6.83 196.46 6.83L196.46 6.83L196.46 6.83Q197.50 6.83 198.15 7.47L198.15 7.47L198.15 7.47Q198.79 8.11 198.79 8.62L198.79 8.62L198.79 8.62Q198.79 8.72 198.72 8.77L198.72 8.77L198.72 8.77Q198.65 8.83 198.56 8.83L198.56 8.83L195.05 9.25L195.05 9.33L195.05 9.33Q195.05 9.36 195.04 9.40L195.04 9.40L195.04 9.40Q195.04 9.43 195.04 9.45L195.04 9.45L195.04 9.45Q195.04 10.49 195.62 11.07L195.62 11.07L195.62 11.07Q196.20 11.64 197.11 11.64L197.11 11.64L197.11 11.64Q197.60 11.64 198.00 11.48L198.00 11.48L198.00 11.48Q198.43 11.29 198.65 11.16L198.65 11.16L198.65 11.16Q198.90 10.99 198.97 10.99L198.97 10.99L198.97 10.99Q199.09 10.99 199.10 11.16L199.10 11.16L199.10 11.16Q199.10 11.34 198.79 11.64L198.79 11.64L198.79 11.64Q198.45 11.98 197.86 12.28L197.86 12.28L197.86 12.28Q197.22 12.60 196.55 12.60L196.55 12.60L196.55 12.60Q195.85 12.60 195.33 12.33L195.33 12.33L195.33 12.33Q194.78 12.05 194.52 11.61L194.52 11.61L194.52 11.61Q194.22 11.14 194.11 10.75L194.11 10.75L194.11 10.75Q193.98 10.32 193.98 9.85ZM195.08 8.76L195.08 8.76L197.48 8.45L197.48 8.45Q197.48 8.44 197.47 8.39L197.47 8.39L197.47 8.39Q197.46 8.35 197.44 8.33L197.44 8.33L197.44 8.33Q197.43 8.31 197.38 8.22L197.38 8.22L197.38 8.22Q197.33 8.13 197.29 8.05L197.29 8.05L197.29 8.05Q197.18 7.83 197.07 7.70L197.07 7.70L197.07 7.70Q196.96 7.57 196.73 7.43L196.73 7.43L196.73 7.43Q196.52 7.31 196.32 7.30L196.32 7.30L196.32 7.30Q195.89 7.30 195.54 7.70L195.54 7.70L195.54 7.70Q195.17 8.10 195.08 8.76ZM206.69 7.63L206.65 7.19L206.65 7.19Q207.42 7.03 208.69 6.73L208.69 6.73L208.69 8.31L208.76 8.19L208.76 8.19Q208.78 8.15 208.80 8.10L208.80 8.10L208.80 8.10Q208.83 8.06 208.87 8.01L208.87 8.01L208.87 8.01Q208.91 7.96 208.92 7.92L208.92 7.92L208.92 7.92Q208.99 7.81 209.15 7.58L209.15 7.58L209.15 7.58Q209.30 7.39 209.45 7.25L209.45 7.25L209.45 7.25Q209.57 7.12 209.80 6.99L209.80 6.99L209.80 6.99Q210 6.88 210.19 6.88L210.19 6.88L210.19 6.88Q210.42 6.88 210.64 6.98L210.64 6.98L210.64 6.98Q210.83 7.06 210.89 7.15L210.89 7.15L210.96 7.23L210.43 8.62L210.21 8.54L210.21 8.35L210.21 8.35Q210.21 8.03 209.87 8.03L209.87 8.03L209.87 8.03Q209.51 8.03 209.11 8.34L209.11 8.34L209.11 8.34Q208.72 8.65 208.72 9.02L208.72 9.02L208.72 11.39L208.72 11.39Q208.72 11.78 208.86 11.87L208.86 11.87L208.86 11.87Q209.03 11.96 209.60 11.96L209.60 11.96L210.21 11.96L210.21 12.41L206.86 12.41L206.86 11.96L207.12 11.96L207.12 11.96Q207.53 11.96 207.64 11.88L207.64 11.88L207.64 11.88Q207.74 11.80 207.74 11.39L207.74 11.39L207.74 7.98L207.74 7.98Q207.74 7.66 207.71 7.58L207.71 7.58L207.71 7.58Q207.67 7.47 207.55 7.47L207.55 7.47L207.55 7.47Q207.53 7.47 207.45 7.49L207.45 7.49L207.45 7.49Q207.36 7.50 207.13 7.54L207.13 7.54L207.13 7.54Q206.90 7.58 206.69 7.63L206.69 7.63Z"></path></g></svg>