<?xml version="1.0" encoding="UTF-8" standalone="no"?>
<svg
   xmlns:dc="http://purl.org/dc/elements/1.1/"
   xmlns:cc="http://creativecommons.org/ns#"
   xmlns:rdf="http://www.w3.org/1999/02/22-rdf-syntax-ns#"
   xmlns:svg="http://www.w3.org/2000/svg"
   xmlns="http://www.w3.org/2000/svg"
   xmlns:xlink="http://www.w3.org/1999/xlink"
   height="90"
   width="576.31366"
   id="svg26"
   version="1.1"
   class="iconLeftSlogan"
   viewBox="-2.7755576e-17 0 576.31366 90"
   data-v-423bf9ae="">
  <metadata
     id="metadata30">
    <rdf:RDF>
      <cc:Work
         rdf:about="">
        <dc:format>image/svg+xml</dc:format>
        <dc:type
           rdf:resource="http://purl.org/dc/dcmitype/StillImage" />
        <dc:title></dc:title>
      </cc:Work>
    </rdf:RDF>
  </metadata>
  <!---->
  <!---->
  <!---->
  <g
     transform="matrix(6.1099798,0,0,6.1099798,108.0448,-11.670061)"
     fill="#000000"
     id="68938521-0cad-4f69-9cd8-8071a9773be2"
     data-v-423bf9ae="">
    <path
       id="path10"
       d="M 0.32,10.6 V 1.93 h 1.93 v 1.84 0 q 0,0.93 -0.04,1.99 v 0 0.02 h 0.03 v 0 Q 2.47,5.33 3.53,3.46 v 0 0 Q 4.08,2.51 4.08,2.02 v 0 -0.09 h 1.98 v 0.05 0 q 0,0.94 -0.78,2.05 v 0 L 4.11,5.74 5.26,8.19 H 6.3 V 8.48 H 5.13 v 0.02 0 Q 5.41,9.11 5.5,9.23 v 0 h 0.21 v 0.89 h 0.3 v 1.6 0 Q 5.5,11.73 5.26,11.73 v 0 H 4.79 v 0 q -0.26,0 -0.7,-0.01 v 0 -1.08 H 3.66 V 9.23 H 3.42 L 3.16,8.48 H 5.11 V 8.19 H 3.32 v 0 Q 3.32,8.16 3.01,7.2 v 0 H 2.99 v 0 Q 2.82,7.51 2.33,8.19 v 0 H 3.16 V 8.48 H 2.25 V 8.96 H 2.13 v 2.24 h 0.12 v 0.5 0 q 0,0.03 -0.04,0.03 v 0 H 0.36 v 0 q -0.04,0 -0.04,-0.03 v 0 -0.78 H 1.2 V 10.6 Z M 5.31,7.69 v 0 h 0.1 v 0 q 0.05,0 0.1,0.27 v 0 0 q 0.03,0 0.1,-0.27 v 0 h 0.15 v 0.42 0 q 0,0.03 -0.03,0.03 v 0 H 5.66 V 7.88 H 5.65 v 0 q 0,0.02 -0.09,0.26 v 0 H 5.51 v 0 q -0.05,0 -0.1,-0.23 v 0 H 5.39 v 0.2 0 q 0,0.03 -0.02,0.03 v 0 H 5.31 v 0 q -0.03,0 -0.03,-0.03 v 0 -0.39 0 q 0,-0.03 0.03,-0.03 z M 2.32,8.19 H 1.11 v 0.29 h 1.13 v 0 q 0,-0.05 0.08,-0.29 z m 1.36,2.54 v -0.02 h 0.1 v 0 q 0.02,0 0.1,0.11 v 0 0 q 0.06,-0.11 0.08,-0.11 v 0 h 0.1 v 0.02 l -0.13,0.19 v 0 q 0.03,0.01 0.15,0.22 v 0 H 3.94 L 3.88,11.01 v 0 q -0.1,0.13 -0.11,0.13 v 0 H 3.66 v 0 q 0.12,-0.21 0.15,-0.22 v 0 z M 6.9,1.96 v 0 h 1.93 v 0 q 0,1.41 0.49,2.39 v 0 0 q 0.52,1.29 0.72,2.04 v 0 0.02 h 0.02 v 0 Q 10.3,5.5 11.07,3.62 v 0 0 q 0.2,-0.9 0.2,-1.66 v 0 h 1.81 v 0 q -0.17,1.47 -0.41,2.17 v 0 L 11.58,6.59 H 10.92 V 8.28 H 9.93 v 0.33 h 0.99 v 3.12 H 9.05 v 0 q -0.03,0 -0.03,-0.03 v 0 -1.53 H 8.72 V 7.46 H 9.28 V 7.21 H 8.67 v 0 Q 8.6,7.12 7.54,4.67 v 0 0 Q 7.1,3.68 7.1,3.49 v 0 H 7.9 V 3.14 H 7.03 v 0 Q 6.9,2.06 6.9,1.96 Z M 5.74,3.49 V 3.14 h 1.29 l 0.05,0.35 z m 5.18,5.12 V 8.28 h 0.81 v 0.33 z m 2.5,0.24 V 1.91 h 1.95 v 4.03 h -0.39 v 4.16 h 2.91 v 0.87 h -0.57 v 0.2 h 0.57 v 0.56 h -1.88 v -0.15 h -2.58 v 0 q -0.01,-0.16 -0.01,-0.25 v 0 -2.19 h 0.49 V 8.85 Z m 4.47,2.32 v -0.2 h 0.71 v 0.2 z M 19.28,6.8 V 2 h 4.79 v 1.6 0 q 0,0.03 -0.03,0.03 v 0 h -2.85 v 2.11 h 2.55 v 0.02 0 q 0,0.08 -0.03,1.03 v 0 0 q -0.02,0 -0.02,0.01 v 0 h 0.12 V 7.29 H 21.6 v 2 h -0.59 v 0.2 h 0.59 v 0.61 h 2.5 v 0.22 h -0.19 v 1.2 h -3 v 0.21 H 19.49 V 8.24 H 19.28 V 7.01 H 17.72 V 6.8 Z m 0.81,0 h -0.8 v 0.21 h 0.8 z m 8.98,0.33 -0.78,-5.2 h 1.86 l 0.54,4.93 h 0.52 v 0 q 0.01,-0.07 0.45,-4.93 v 0 H 34 v 0 q 0.45,5.02 0.47,5.12 v 0 h 0.78 v 0 q 0.51,-4.4 0.57,-5.12 v 0 h 1.85 l -0.77,5.2 h -0.14 v 0.96 h -1.4 v 0.25 h 1.1 V 9.8 H 35.4 v 1.29 h -0.28 v 0.56 H 33.93 V 8.48 h -0.78 v -1.14 0 q 0,-0.15 -0.3,-2.77 v 0 h -0.04 v 0.02 l -0.25,2.27 h 0.12 v 3.5 h -1.14 v 1.37 H 30.08 V 10.36 H 29.52 V 7.13 Z m 0.06,0.14 v 0 h 0.09 l 0.07,0.22 h 0.02 v 0 q 0.04,-0.22 0.08,-0.22 v 0 h 0.06 v 0.02 0 q -0.1,0.34 -0.12,0.34 v 0 h -0.09 v 0 q 0,-0.05 -0.11,-0.36 z M 29.11,7.94 V 7.76 h 0.1 V 8 8 q 0,0.01 0.07,0.05 v 0 0 Q 29.34,8.03 29.34,8 V 8 7.76 h 0.1 v 0.18 0 q 0,0.13 -0.1,0.17 v 0 h -0.1 v 0 q -0.13,0 -0.13,-0.17 z m 0,0.62 V 8.24 h 0.24 v 0 q 0.03,0 0.07,0.07 v 0 0.06 l -0.03,0.05 v 0 q 0.03,0.05 0.05,0.17 v 0 h -0.1 v 0 q 0,-0.04 -0.01,-0.13 v 0 h -0.12 v 0.13 h -0.06 v 0 q -0.04,0 -0.04,-0.03 z m 0.22,-0.25 h -0.12 v 0.08 h 0.1 v 0 q 0.03,0 0.03,-0.04 v 0 0 Q 29.33,8.32 29.33,8.31 Z M 29.18,9.04 V 8.72 h 0.26 V 8.8 h -0.16 v 0.05 h 0.11 v 0 q 0.03,0.01 0.03,0.04 v 0 0.04 h -0.14 v 0.15 h -0.07 v 0 q -0.03,0 -0.03,-0.04 z m 0.1,0.15 v 0 0 q 0.14,0.03 0.14,0.13 v 0 L 29.39,9.33 H 29.35 L 29.29,9.27 h -0.05 v 0 Q 29.18,9.3 29.18,9.38 v 0 0 q 0,0.12 0.1,0.12 v 0 0 q 0.06,-0.03 0.06,-0.05 v 0 -0.02 0 q -0.08,0 -0.08,-0.03 v 0 -0.02 0 q 0,-0.03 0.03,-0.03 v 0 h 0.13 V 9.56 H 29.4 v 0 q -0.01,0 -0.05,-0.02 v 0 l -0.09,0.02 h -0.02 v 0 Q 29.1,9.54 29.1,9.41 v 0 -0.06 0 q 0,-0.14 0.18,-0.16 z m -0.17,0.82 V 9.69 h 0.1 v 0.13 h 0.13 V 9.69 h 0.1 v 0.32 0 q 0,0.03 -0.04,0.03 v 0 H 29.34 V 9.9 h -0.13 v 0.14 h -0.06 v 0 q -0.04,0 -0.04,-0.03 z m 6.34,-0.13 v 0 h 0.1 v 0 q 0.03,0.14 0.03,0.2 v 0 h 0.01 v 0 q 0.05,-0.16 0.05,-0.2 v 0 h 0.07 v 0 q 0.04,0 0.06,0.21 v 0 h 0.02 v 0 q 0.03,-0.21 0.06,-0.21 v 0 h 0.07 v 0 q -0.08,0.35 -0.11,0.35 v 0 h -0.07 l -0.05,-0.19 h -0.01 v 0 q -0.04,0.18 -0.04,0.19 v 0 h -0.09 v 0 Q 35.52,10.1 35.45,9.88 Z m 0.01,0.5 v -0.02 h 0.09 v 0 q 0.03,0 0.07,0.1 v 0 0 q 0.02,0 0.06,-0.1 v 0 h 0.09 v 0.02 l -0.09,0.15 v 0 q 0,0 0.11,0.17 v 0 0.02 h -0.08 v 0 q -0.04,0 -0.08,-0.12 v 0 0 q -0.08,0.12 -0.1,0.12 v 0 h -0.08 v 0 q 0,-0.01 0.12,-0.18 v 0 -0.01 z M 37.82,6.64 V 1.96 h 1.94 v 3.89 h 1.95 V 1.96 h 1.64 v 5.55 h -0.67 v 0.24 h 0.67 v 3.98 h -1.61 v 0 q -0.03,0 -0.03,-0.03 v 0 -4.22 h -1.95 v 4.22 0 q 0,0.03 -0.04,0.03 v 0 H 38.1 V 6.64 Z m 5.53,1.11 V 7.51 h 0.87 v 0.24 z m 1.33,-5.79 v 0 h 1.92 v 0 q 0,1.41 0.49,2.39 v 0 0 q 0.53,1.29 0.73,2.04 v 0 0.02 h 0.01 v 0 Q 48.08,5.5 48.85,3.62 v 0 0 q 0.2,-0.9 0.2,-1.66 v 0 h 1.8 v 0 q -0.16,1.47 -0.41,2.17 v 0 L 49.36,6.59 H 48.7 v 1.69 h -1 v 0.33 h 1 v 3.12 h -1.87 v 0 q -0.03,0 -0.03,-0.03 v 0 -1.53 H 46.5 V 7.46 h 0.56 V 7.21 h -0.61 v 0 Q 46.38,7.12 45.32,4.67 v 0 0 Q 44.87,3.68 44.87,3.49 v 0 h 0.81 V 3.14 h -0.87 v 0 Q 44.68,2.06 44.68,1.96 Z M 43.51,3.49 V 3.14 h 1.3 l 0.05,0.35 z M 48.7,8.61 V 8.28 h 0.81 v 0.33 z m 2.77,-6.65 v 0 h 2 v 0 q 0.04,0 0.64,1.57 v 0 0 q 0.05,0.06 1.26,3.09 v 0 h 0.51 V 1.96 h 1.75 v 5.55 h 0.2 v 2.16 h -0.71 v 0.41 h 0.71 v 1.29 H 55.21 V 9.73 h -0.47 v 0 Q 53.8,7.44 53.47,6.56 v 0 -1.64 h -0.25 v 5.01 h -0.39 v 1.73 H 51.19 V 7.94 h 0.3 v -0.02 0 Q 51.47,3.09 51.47,1.96 Z m 3.87,4.66 h -0.93 v 0.36 h 1.09 v 0 Q 55.37,6.62 55.34,6.62 Z m 1.35,0 H 55.9 v 0.36 h -0.39 v 0 q 0.35,0.87 0.42,1.13 v 0 h 0.02 v -0.04 0 Q 55.9,7.18 55.9,6.98 v 0 h 0.79 z m -1.48,5.11 v -0.18 h 3.16 v 0.18 z m 7.07,-9.78 v 0 0 q 2.1,0 2.76,1.47 v 0 0 q 0.38,0.72 0.38,2.77 v 0 0.04 H 64.7 v 0.33 h 0.72 v 3.54 h -0.48 v 1.27 h -0.95 v 0.36 h -3.32 v -0.36 h -0.4 V 10.1 h -0.86 v -1 h 0.51 V 8.57 H 59.41 V 9.1 H 58.2 V 8.57 h 0.92 v 0 Q 59.1,7.38 59.1,6.74 v 0 -0.83 0 q 0,-2.33 0.79,-3.11 v 0 0 q 0.72,-0.85 2.39,-0.85 z m -1.2,3.37 v 0 h 0.02 l -0.02,0.03 v 0.88 h -0.73 v 0.33 h 0.73 v 0 q -0.01,2.11 -0.01,3.19 v 0 0.35 H 62.7 V 9.56 h 0.75 v -0.02 0 q 0,-1 -0.01,-2.79 v 0 0 q 0,-0.07 0.01,-0.37 v 0 0 q 0,-1.93 -0.22,-2.37 v 0 0 Q 62.99,3.58 62.37,3.58 v 0 h -0.24 v 0 q -0.74,0 -0.92,0.66 v 0 0 q -0.08,0.32 -0.13,1.08 z m 4.34,1.24 V 6.23 H 66.6 V 6.56 Z M 65.86,3.57 V 1.93 h 5.75 v 1.64 h -1.9 v 6.77 h 0.86 v 0.2 h -0.86 v 0.75 h -0.52 v 0.26 h 0.37 v 0.18 h -1.75 v 0 q -0.03,0 -0.03,-0.03 v 0 -8.13 z m 3.83,6.77 h -0.66 v 0.2 h 0.66 z M 70.9,3.57 V 1.93 h 5.74 v 1.64 h -1.9 v 6.77 h 0.86 v 0.2 h -0.86 v 0.75 h -0.52 v 0.26 h 0.37 v 0.18 h -1.75 v 0 q -0.03,0 -0.03,-0.03 v 0 -8.13 z m 3.82,6.77 h -0.66 v 0.2 h 0.66 z" />
  </g>
  <defs
     id="defs18"
     data-v-423bf9ae="">
    <linearGradient
       y2="0"
       x2="1"
       y1="0"
       x1="0"
       id="878b3277-63ac-4b27-bfe1-9d770337e073"
       gradientTransform="rotate(25)"
       data-v-423bf9ae="">
      <stop
         id="stop13"
         style="stop-color: rgb(233, 13, 218); stop-opacity: 1;"
         offset="0%"
         data-v-423bf9ae="" />
      <stop
         id="stop15"
         style="stop-color: rgb(21, 207, 241); stop-opacity: 1;"
         offset="100%"
         data-v-423bf9ae="" />
    </linearGradient>
    <linearGradient
       gradientUnits="userSpaceOnUse"
       y2="0"
       x2="32"
       y1="0"
       x1="0"
       id="linearGradient96"
       xlink:href="#878b3277-63ac-4b27-bfe1-9d770337e073" />
    <linearGradient
       gradientUnits="userSpaceOnUse"
       y2="0"
       x2="32"
       y1="0"
       x1="0"
       id="linearGradient98"
       xlink:href="#878b3277-63ac-4b27-bfe1-9d770337e073" />
  </defs>
  <g
     style="fill:url(#linearGradient98)"
     fill="url(#878b3277-63ac-4b27-bfe1-9d770337e073)"
     stroke="none"
     transform="scale(2.8125)"
     id="999eea4b-a2a0-4db7-885a-d264b6c432bb"
     data-v-423bf9ae="">
    <path
       style="fill:url(#linearGradient96)"
       id="path20"
       d="M 9.382,8.675 H 23.325 V 22.618 L 32,31.293 V 0 H 0.707 Z m 13.236,14.65 H 8.675 V 9.382 L 0,0.707 V 32 h 31.293 z" />
  </g>
  <!---->
  <g
     transform="matrix(1.7712878,0,0,1.7712878,109.38005,55.961464)"
     fill="#000000"
     id="1248e4ed-3d5f-4c46-b052-8bf27633519c"
     data-v-423bf9ae="">
    <path
       id="path23"
       d="m 0.35,10.04 v 0 l 0.49,-0.06 0.19,0.87 v 0 q 0.1,0.48 0.17,0.56 v 0 0 q 0.07,0.08 0.48,0.23 v 0 0 q 0.84,0.31 1.74,0.31 v 0 0 q 0.78,0 1.32,-0.46 v 0 0 q 0.54,-0.45 0.54,-1.23 v 0 0 q 0,-0.61 -0.46,-1.05 v 0 0 Q 4.34,8.76 3.49,8.3 v 0 L 2.91,7.98 v 0 Q 2.17,7.55 1.93,7.36 v 0 0 Q 1.57,7.08 1.26,6.59 v 0 0 Q 0.95,6.1 0.95,5.46 v 0 0 q 0,-1.07 0.84,-1.78 v 0 0 Q 2.63,2.97 3.74,2.97 v 0 0 q 0.28,0 0.63,0.07 v 0 0 q 0.2,0.04 0.53,0.13 v 0 l 0.24,0.08 v 0 q 0.1,0 0.14,-0.09 v 0 0 Q 5.33,3.05 5.33,2.98 v 0 L 5.35,2.88 5.82,2.85 6.04,5.41 5.53,5.43 5.41,4.18 v 0 Q 4.66,3.62 3.5,3.62 v 0 0 q -0.64,0 -1.15,0.43 v 0 0 Q 1.87,4.47 1.87,5.12 v 0 0 q 0,0.6 0.45,1.05 v 0 0 q 0.43,0.43 1.3,0.91 v 0 L 4.4,7.5 v 0 q 0.95,0.53 1.48,1.09 v 0 0 q 0.53,0.56 0.53,1.33 v 0 0 q 0,1.07 -0.85,1.84 v 0 0 q -0.87,0.78 -2.33,0.78 v 0 0 q -0.56,0 -1.06,-0.13 v 0 0 Q 1.67,12.29 1.61,12.29 v 0 0 q -0.25,0 -0.25,0.29 v 0 L 1.37,12.76 0.9,12.8 v 0 Q 0.83,12.41 0.35,10.04 Z M 14.57,9.69 v 0 0 q 0,-1.21 0.7,-2.03 v 0 0 Q 16,6.8 17.34,6.8 v 0 0 q 0.69,0 1.21,0.21 v 0 0 q 0.58,0.24 0.85,0.5 v 0 0 q 0.31,0.31 0.52,0.73 v 0 0 q 0.18,0.37 0.27,0.81 v 0 0 q 0.09,0.38 0.09,0.79 v 0 0 q 0,1.19 -0.8,1.99 v 0 0 q -0.8,0.8 -2.11,0.8 v 0 0 q -1.33,0 -2.07,-0.89 v 0 0 Q 14.57,10.88 14.57,9.69 Z m 1.12,-0.35 v 0 0 q 0,1.04 0.53,1.9 v 0 0 q 0.52,0.84 1.33,0.84 v 0 0 q 0.8,0 1.18,-0.66 v 0 0 q 0.38,-0.66 0.38,-1.62 v 0 0 q 0,-1.23 -0.54,-1.86 v 0 0 Q 18.03,7.28 17.21,7.27 v 0 0 q -0.65,0 -1.08,0.55 v 0 0 Q 15.69,8.35 15.69,9.34 Z M 28.87,7.59 h -1.02 l 0.16,-0.67 h 0.86 v -1.51 0 q 0,-0.37 0.01,-0.52 v 0 0 q 0.04,-0.34 0.09,-0.56 v 0 0 q 0.07,-0.32 0.22,-0.64 v 0 0 q 0.1,-0.22 0.41,-0.57 v 0 0 Q 29.88,2.8 30.24,2.57 v 0 0 Q 30.72,2.28 31.4,2.28 v 0 0 q 0.47,0 0.78,0.12 v 0 0 q 0.3,0.13 0.3,0.38 v 0 0 q 0,0.2 -0.26,0.55 v 0 0 q -0.28,0.36 -0.47,0.36 v 0 0 q -0.1,0 -0.21,-0.21 v 0 0 Q 31.43,3.24 31.28,3.06 v 0 0 Q 31.11,2.85 30.9,2.85 v 0 0 q -0.36,0 -0.59,0.27 v 0 0 Q 30.07,3.4 29.99,3.83 v 0 0 q -0.1,0.51 -0.11,0.72 v 0 0 q -0.03,0.36 -0.03,0.53 v 0 1.84 h 1.57 l -0.15,0.67 h -1.42 v 3.96 0 q 0,0.28 0.13,0.34 v 0 0 q 0.13,0.07 0.75,0.07 v 0 h 0.2 l -0.02,0.45 H 28 l -0.01,-0.45 h 0.29 v 0 q 0.36,0 0.48,-0.07 v 0 0 q 0.11,-0.06 0.11,-0.3 v 0 z M 38.89,7.58 v 0 0 Q 38.89,7.55 39,7.4 v 0 0 q 0.07,-0.09 0.37,-0.39 v 0 0 q 0.16,-0.16 0.32,-0.37 v 0 l 0.39,-0.47 0.38,-0.46 v 0 q 0.12,-0.17 0.17,-0.17 v 0 0 q 0.08,0 0.08,0.1 v 0 1.39 H 42.6 L 42.51,7.7 h -1.8 v 3.26 0 q 0,0.83 0.94,0.83 v 0 0 q 0.24,0 0.49,-0.07 v 0 0 q 0.23,-0.06 0.37,-0.13 v 0 0 q 0.04,-0.02 0.08,-0.04 v 0 0 q 0.04,-0.02 0.06,-0.02 v 0 l 0.02,-0.01 v 0 q 0.1,0 0.1,0.14 v 0 0 q 0,0.29 -0.56,0.6 v 0 0 q -0.56,0.31 -1.11,0.31 v 0 0 q -0.71,0 -1.03,-0.41 v 0 0 q -0.34,-0.42 -0.34,-1.09 v 0 -3.37 h -0.67 v 0 Q 38.89,7.69 38.89,7.58 Z m 11.34,-0.2 v 0 -0.46 h 2.94 l -0.01,0.46 h -0.43 v 0 q -0.41,0 -0.41,0.24 v 0 0 q 0,0.12 0.13,0.44 v 0 l 1.31,3.03 1.48,-3.23 v 0 Q 55.12,7.53 54.97,7.46 v 0 0 Q 54.82,7.38 54.52,7.38 v 0 H 54 L 53.97,6.92 h 3.02 v 0.46 0 q -0.45,0 -0.6,0.04 v 0 0 q -0.14,0.04 -0.14,0.16 v 0 0 q 0,0.07 0.13,0.41 v 0 l 1.29,3.09 1.5,-3.16 v 0 q 0.11,-0.26 0.12,-0.35 v 0 0 q 0,-0.2 -0.62,-0.19 v 0 H 58.31 V 6.92 h 2.48 l 0.01,0.46 v 0 q -0.32,0 -0.4,0.01 v 0 0 q -0.13,0.02 -0.3,0.12 v 0 0 q -0.16,0.1 -0.27,0.32 v 0 l -2.32,4.82 -0.31,-0.01 -1.69,-4.18 -1.9,4.21 -0.29,-0.02 -1.94,-4.52 v 0 Q 51.11,7.54 51.03,7.47 v 0 0 Q 50.89,7.38 50.23,7.38 Z m 18.16,4.12 v 0 0 q 0,-0.86 0.82,-1.49 v 0 0 q 0.84,-0.64 2,-0.64 v 0 -0.85 0 q 0,-0.49 -0.17,-0.74 v 0 0 Q 70.88,7.53 70.27,7.53 v 0 0 q -0.92,0.02 -1.13,0.43 v 0 0 q 0.03,0.14 0.05,0.23 v 0 0 q 0.02,0.05 0.04,0.14 v 0 l 0.02,0.09 v 0 q 0.03,0.11 0.03,0.16 v 0 0 q 0,0.17 -0.17,0.27 v 0 0 q -0.16,0.09 -0.28,0.09 v 0 0 q -0.32,0 -0.32,-0.5 v 0 0 q 0,-0.19 0.1,-0.39 v 0 0 q 0.1,-0.26 0.34,-0.51 v 0 0 q 0.27,-0.29 0.79,-0.47 v 0 0 q 0.55,-0.2 1.22,-0.2 v 0 0 q 0.22,0 0.33,0.03 v 0 0 q 0.19,0.04 0.4,0.14 v 0 0 q 0.2,0.1 0.36,0.36 v 0 0 q 0.14,0.24 0.14,0.59 v 0 2.62 0 q 0,0.51 0.18,0.83 v 0 0 q 0.17,0.29 0.73,0.44 v 0 0 q 0.12,0.04 0.13,0.12 v 0 0 q 0,0.08 -0.13,0.15 v 0 0 q -0.69,0.46 -0.84,0.5 v 0 0 q -0.22,-0.17 -0.33,-0.26 v 0 l -0.2,-0.22 -0.21,-0.25 v 0 q -0.04,-0.04 -0.08,-0.1 v 0 0 q -0.05,-0.06 -0.08,-0.1 v 0 0 q -0.03,-0.03 -0.04,-0.05 v 0 0 Q 71.08,12 70.58,12.3 v 0 0 q -0.45,0.27 -0.89,0.27 v 0 0 q -0.51,0 -0.9,-0.27 v 0 0 q -0.4,-0.26 -0.4,-0.8 z m 0.99,-0.41 v 0 0 q 0,0.3 0.21,0.51 v 0 0 q 0.2,0.21 0.63,0.21 v 0 0 q 0.53,0 0.76,-0.24 v 0 0 q 0.23,-0.22 0.23,-0.53 v 0 -1.3 0 q -0.81,0 -1.32,0.42 v 0 0 q -0.51,0.43 -0.51,0.93 z M 80.6,7.63 80.56,7.19 v 0 q 0.77,-0.16 2.05,-0.46 v 0 1.58 l 0.06,-0.12 v 0 Q 82.69,8.15 82.71,8.1 v 0 0 q 0.03,-0.04 0.07,-0.09 v 0 0 q 0.04,-0.05 0.05,-0.09 v 0 0 Q 82.9,7.81 83.06,7.58 v 0 0 q 0.15,-0.19 0.3,-0.33 v 0 0 q 0.12,-0.13 0.35,-0.26 v 0 0 q 0.2,-0.11 0.39,-0.11 v 0 0 q 0.23,0 0.45,0.1 v 0 0 q 0.19,0.08 0.25,0.17 v 0 l 0.08,0.08 -0.54,1.39 -0.22,-0.08 v -0.19 0 q 0,-0.32 -0.34,-0.32 v 0 0 q -0.36,0 -0.75,0.31 v 0 0 q -0.4,0.31 -0.4,0.68 v 0 2.37 0 q 0,0.39 0.14,0.48 v 0 0 q 0.17,0.09 0.74,0.09 v 0 h 0.61 v 0.45 h -3.35 v -0.45 h 0.26 v 0 q 0.41,0 0.52,-0.08 v 0 0 q 0.1,-0.08 0.11,-0.49 v 0 -3.41 0 q 0,-0.32 -0.04,-0.4 v 0 0 Q 81.58,7.47 81.46,7.47 v 0 0 q -0.02,0 -0.1,0.02 v 0 0 Q 81.27,7.5 81.04,7.54 v 0 0 Q 80.81,7.58 80.6,7.63 Z m 11.83,2.22 v 0 0 q 0,-1.36 0.7,-2.18 v 0 0 q 0.71,-0.84 1.78,-0.84 v 0 0 q 1.04,0 1.68,0.64 v 0 0 q 0.64,0.64 0.64,1.15 v 0 0 q 0,0.1 -0.07,0.15 v 0 0 q -0.07,0.06 -0.15,0.06 v 0 L 93.5,9.25 v 0.08 0 q 0,0.03 -0.01,0.07 v 0 0 q -0.01,0.03 -0.01,0.05 v 0 0 q 0,1.04 0.59,1.62 v 0 0 q 0.57,0.57 1.48,0.57 v 0 0 q 0.49,0 0.9,-0.16 v 0 0 q 0.43,-0.19 0.64,-0.32 v 0 0 q 0.25,-0.17 0.32,-0.17 v 0 0 q 0.13,0 0.13,0.17 v 0 0 q 0,0.18 -0.31,0.48 v 0 0 q -0.33,0.34 -0.93,0.64 v 0 0 q -0.64,0.32 -1.31,0.32 v 0 0 q -0.7,0 -1.21,-0.27 v 0 0 q -0.55,-0.28 -0.82,-0.72 v 0 0 q -0.29,-0.47 -0.4,-0.86 v 0 0 q -0.13,-0.43 -0.13,-0.9 z m 1.09,-1.09 v 0 l 2.41,-0.31 v 0 q 0,-0.01 -0.01,-0.06 v 0 0 Q 95.9,8.35 95.89,8.33 v 0 0 Q 95.87,8.31 95.83,8.22 v 0 0 Q 95.78,8.13 95.73,8.05 v 0 0 Q 95.62,7.83 95.51,7.7 v 0 0 Q 95.4,7.57 95.18,7.43 v 0 0 Q 94.96,7.31 94.77,7.3 v 0 0 q -0.43,0 -0.79,0.4 v 0 0 q -0.36,0.4 -0.46,1.06 z m 21.3,-5.12 -0.02,-0.56 h 7.21 v 0 q 0.02,1.06 0.07,2.2 v 0 l -0.54,0.02 v 0 q -0.02,-0.64 -0.07,-1.05 v 0 0 q -0.04,-0.36 -0.1,-0.45 v 0 0 Q 121.32,3.71 121.2,3.69 v 0 0 q -0.09,-0.01 -0.68,-0.01 v 0 h -2.38 v 0 q -0.55,0 -0.69,0.09 v 0 0 q -0.12,0.09 -0.12,0.56 v 0 1.95 0 q 0,0.41 0.05,0.48 v 0 0 q 0.07,0.08 0.41,0.08 v 0 h 2.11 v 0 q 0.36,0 0.45,-0.11 v 0 0 q 0.08,-0.1 0.09,-0.59 v 0 -0.53 l 0.51,0.02 v 3.34 h -0.51 v -0.73 0 q 0,-0.58 -0.08,-0.67 v 0 0 q -0.08,-0.11 -0.43,-0.11 v 0 h -2.1 v 0 q -0.33,0 -0.42,0.08 v 0 0 q -0.08,0.09 -0.08,0.35 v 0 3.31 0 q 0,0.37 0.08,0.47 v 0 0 q 0.09,0.1 0.36,0.1 v 0 0 q 2.92,-0.02 3.44,-0.08 v 0 0 q 0.52,-0.06 0.61,-0.31 v 0 -0.02 l 0.01,-0.01 0.23,-1.18 0.47,0.08 -0.34,2.16 h -7.11 v -0.54 h 0.37 v 0 q 0.56,0 0.64,-0.07 v 0 0 q 0.1,-0.08 0.1,-0.47 v 0 -7.09 0 q 0,-0.42 -0.15,-0.51 v 0 0 q -0.17,-0.09 -0.83,-0.09 v 0 z m 15.47,8.77 -0.02,-0.45 h 0.14 v 0 q 0.45,0 0.55,-0.07 v 0 0 q 0.08,-0.06 0.08,-0.4 v 0 -3.33 0 q 0,-0.46 -0.04,-0.58 v 0 0 q -0.04,-0.12 -0.17,-0.12 v 0 l -0.05,0.01 v 0 q -0.06,0.02 -0.2,0.04 v 0 0 q -0.14,0.03 -0.28,0.06 v 0 -0.43 l 1.72,-0.35 v 0 q -0.04,0.5 -0.04,0.99 v 0 l 0.04,-0.03 v 0 q 0.04,-0.04 0.14,-0.1 v 0 0 q 0.09,-0.07 0.18,-0.14 v 0 0 q 0.34,-0.25 0.79,-0.43 v 0 0 q 0.48,-0.2 0.96,-0.2 v 0 0 q 0.34,0 0.56,0.09 v 0 0 q 0.24,0.08 0.38,0.26 v 0 0 q 0.11,0.16 0.23,0.36 v 0 0 q 0.06,0.13 0.11,0.48 v 0 0 q 0.04,0.32 0.04,0.51 v 0 0 q 0,0.05 0,0.23 v 0 0 q 0.01,0.19 0.01,0.33 v 0 2.41 0 q 0,0.28 0.16,0.34 v 0 0 q 0.17,0.07 0.69,0.07 v 0 l -0.01,0.45 h -2.6 l -0.02,-0.45 h 0.32 v 0 q 0.3,0 0.4,-0.07 v 0 0 q 0.08,-0.06 0.08,-0.34 v 0 -2.82 0 q 0,-0.6 -0.21,-0.82 v 0 0 q -0.21,-0.24 -0.7,-0.24 v 0 0 q -0.26,0 -0.67,0.11 v 0 0 q -0.39,0.11 -0.6,0.22 v 0 l -0.24,0.11 v 3.38 0 q 0,0.34 0.12,0.4 v 0 0 q 0.11,0.07 0.72,0.07 v 0 h 0.18 l -0.03,0.45 z m 13.1,2.14 v 0 0 q 0,-1.1 1.44,-1.68 v 0 l 0.5,-0.18 v 0 q -0.09,0 -0.15,-0.01 v 0 0 q -0.03,0 -0.13,-0.03 v 0 0 q -0.11,-0.04 -0.19,-0.07 v 0 0 q -0.16,-0.04 -0.41,-0.15 v 0 0 q -0.18,-0.08 -0.32,-0.24 v 0 0 Q 143.97,12 143.98,11.83 v 0 0 q 0,-0.62 1.11,-0.95 v 0 l 0.19,-0.05 v 0 q -0.02,0 -0.06,-0.01 v 0 0 q -0.05,-0.02 -0.08,-0.03 v 0 0 q -0.07,-0.03 -0.32,-0.19 v 0 0 q -0.19,-0.11 -0.4,-0.35 v 0 0 Q 144.24,10.04 144.1,9.7 v 0 0 q -0.14,-0.33 -0.14,-0.77 v 0 0 q 0,-0.86 0.67,-1.49 v 0 0 q 0.67,-0.62 1.54,-0.62 v 0 0 q 0.62,0 1.12,0.29 v 0 0 q 0.48,0.28 0.93,0.28 v 0 0 q 0.24,0 0.39,-0.06 v 0 0 q 0.19,-0.06 0.21,-0.1 v 0 0 q 0.07,-0.07 0.13,-0.16 v 0 l 0.07,-0.16 h 0.29 v 0.35 0 q 0,0.51 -0.08,0.63 v 0 0 q -0.09,0.13 -0.48,0.13 v 0 h -0.23 v 0 q -0.37,0 -0.37,0.04 v 0 0 q 0,0.04 0.08,0.14 v 0 0 q 0.09,0.1 0.17,0.32 v 0 0 q 0.07,0.18 0.07,0.5 v 0 0 q 0,0.82 -0.64,1.38 v 0 0 q -0.66,0.57 -1.66,0.57 v 0 0 q -0.56,0 -0.88,0.12 v 0 0 q -0.32,0.13 -0.32,0.39 v 0 0 q 0,0.11 0.07,0.21 v 0 0 q 0.05,0.07 0.22,0.1 v 0 0 q 0.02,0 0.12,0.02 v 0 0 q 0.11,0.02 0.16,0.02 v 0 h 0.34 0.05 0.47 v 0 q 0.11,0 0.28,-0.01 v 0 0 q 0.16,-0.01 0.21,-0.01 v 0 0 q 2.55,0 2.54,1.57 v 0 0 q 0,1.04 -1.07,1.88 v 0 0 q -1.07,0.84 -2.69,0.84 v 0 0 q -0.9,0 -1.58,-0.4 v 0 0 q -0.7,-0.4 -0.7,-1.15 z m 1.07,-0.16 v 0 0 q 0,0.48 0.41,0.77 v 0 0 q 0.4,0.29 1.22,0.29 v 0 0 q 0.91,0 1.64,-0.45 v 0 0 q 0.73,-0.45 0.73,-1.24 v 0 0 q 0,-1.04 -1.75,-1.04 v 0 0 q -0.95,0 -1.6,0.53 v 0 0 q -0.65,0.54 -0.65,1.14 z m 0.67,-5.56 v 0 0 q 0,0.82 0.35,1.26 v 0 0 q 0.34,0.45 0.81,0.45 v 0 0 q 0.4,0 0.7,-0.38 v 0 0 q 0.29,-0.38 0.29,-1.09 v 0 0 q 0,-0.81 -0.33,-1.27 v 0 0 q -0.34,-0.47 -0.82,-0.47 v 0 0 q -0.42,0 -0.71,0.39 v 0 0 q -0.29,0.41 -0.29,1.11 z M 157.12,7.57 157.1,7.15 v 0 q 1.04,-0.17 1.98,-0.42 v 0 4.86 0 q 0,0.24 0.12,0.3 v 0 0 q 0.14,0.07 0.75,0.07 v 0 h 0.25 v 0.45 h -3.04 v -0.45 h 0.13 v 0 q 0.54,0 0.67,-0.05 v 0 0 q 0.13,-0.06 0.14,-0.27 v 0 -3.73 0 q 0,-0.27 -0.04,-0.36 v 0 0 q -0.04,-0.09 -0.17,-0.09 v 0 0 q -0.17,0 -0.77,0.11 z m 1.04,-3.48 v 0 0 q 0,-0.17 0.22,-0.37 v 0 0 q 0.22,-0.21 0.36,-0.21 v 0 0 q 0.14,0 0.37,0.22 v 0 0 q 0.24,0.24 0.24,0.38 v 0 0 q 0,0.14 -0.24,0.38 v 0 0 q -0.24,0.24 -0.37,0.24 v 0 0 q -0.18,0 -0.39,-0.25 v 0 0 q -0.19,-0.25 -0.19,-0.39 z m 9.51,8.32 -0.01,-0.45 h 0.13 v 0 q 0.46,0 0.55,-0.07 v 0 0 q 0.08,-0.06 0.08,-0.4 v 0 -3.33 0 q 0,-0.46 -0.04,-0.58 v 0 0 q -0.04,-0.12 -0.16,-0.12 v 0 l -0.06,0.01 v 0 q -0.05,0.02 -0.19,0.04 v 0 0 q -0.15,0.03 -0.28,0.06 v 0 -0.43 l 1.72,-0.35 v 0 q -0.04,0.5 -0.04,0.99 v 0 l 0.04,-0.03 v 0 q 0.04,-0.04 0.13,-0.1 v 0 0 q 0.09,-0.07 0.19,-0.14 v 0 0 q 0.33,-0.25 0.79,-0.43 v 0 0 q 0.47,-0.2 0.96,-0.2 v 0 0 q 0.33,0 0.56,0.09 v 0 0 q 0.24,0.08 0.38,0.26 v 0 0 q 0.11,0.16 0.22,0.36 v 0 0 q 0.07,0.13 0.11,0.48 v 0 0 q 0.04,0.32 0.04,0.51 v 0 0 q 0,0.05 0.01,0.23 v 0 0 q 0.01,0.19 0.01,0.33 v 0 2.41 0 q 0,0.28 0.15,0.34 v 0 0 q 0.17,0.07 0.7,0.07 v 0 l -0.01,0.45 h -2.61 l -0.01,-0.45 h 0.32 v 0 q 0.29,0 0.4,-0.07 v 0 0 q 0.08,-0.06 0.08,-0.34 v 0 -2.82 0 q 0,-0.6 -0.21,-0.82 v 0 0 q -0.22,-0.24 -0.7,-0.24 v 0 0 q -0.27,0 -0.67,0.11 v 0 0 q -0.39,0.11 -0.6,0.22 v 0 l -0.24,0.11 v 3.38 0 q 0,0.34 0.11,0.4 v 0 0 q 0.11,0.07 0.73,0.07 v 0 h 0.18 l -0.03,0.45 z m 13.55,-2.56 v 0 0 q 0,-1.36 0.7,-2.18 v 0 0 q 0.72,-0.84 1.78,-0.84 v 0 0 q 1.04,0 1.68,0.64 v 0 0 q 0.65,0.64 0.65,1.15 v 0 0 q 0,0.1 -0.08,0.15 v 0 0 q -0.07,0.06 -0.15,0.06 v 0 l -3.51,0.42 v 0.08 0 q 0,0.03 -0.01,0.07 v 0 0 q -0.01,0.03 -0.01,0.05 v 0 0 q 0,1.04 0.59,1.62 v 0 0 q 0.58,0.57 1.48,0.57 v 0 0 q 0.5,0 0.9,-0.16 v 0 0 q 0.43,-0.19 0.64,-0.32 v 0 0 q 0.26,-0.17 0.32,-0.17 v 0 0 q 0.13,0 0.13,0.17 v 0 0 q 0,0.18 -0.3,0.48 v 0 0 q -0.34,0.34 -0.93,0.64 v 0 0 q -0.65,0.32 -1.32,0.32 v 0 0 q -0.69,0 -1.21,-0.27 v 0 0 q -0.55,-0.28 -0.82,-0.72 v 0 0 q -0.29,-0.47 -0.4,-0.86 v 0 0 q -0.13,-0.43 -0.13,-0.9 z m 1.09,-1.09 v 0 l 2.41,-0.31 v 0 q 0,-0.01 -0.01,-0.06 v 0 0 q -0.02,-0.04 -0.03,-0.06 v 0 0 q -0.01,-0.02 -0.06,-0.11 v 0 0 q -0.05,-0.09 -0.1,-0.17 v 0 0 Q 184.41,7.83 184.3,7.7 v 0 0 q -0.11,-0.13 -0.33,-0.27 v 0 0 Q 183.76,7.31 183.56,7.3 v 0 0 q -0.43,0 -0.79,0.4 v 0 0 q -0.36,0.4 -0.46,1.06 z m 11.67,1.09 v 0 0 q 0,-1.36 0.71,-2.18 v 0 0 q 0.71,-0.84 1.77,-0.84 v 0 0 q 1.04,0 1.69,0.64 v 0 0 q 0.64,0.64 0.64,1.15 v 0 0 q 0,0.1 -0.07,0.15 v 0 0 q -0.07,0.06 -0.16,0.06 v 0 l -3.51,0.42 v 0.08 0 q 0,0.03 -0.01,0.07 v 0 0 q 0,0.03 0,0.05 v 0 0 q 0,1.04 0.58,1.62 v 0 0 q 0.58,0.57 1.49,0.57 v 0 0 q 0.49,0 0.89,-0.16 v 0 0 q 0.43,-0.19 0.65,-0.32 v 0 0 q 0.25,-0.17 0.32,-0.17 v 0 0 q 0.12,0 0.13,0.17 v 0 0 q 0,0.18 -0.31,0.48 v 0 0 q -0.34,0.34 -0.93,0.64 v 0 0 q -0.64,0.32 -1.31,0.32 v 0 0 q -0.7,0 -1.22,-0.27 v 0 0 q -0.55,-0.28 -0.81,-0.72 v 0 0 q -0.3,-0.47 -0.41,-0.86 v 0 0 q -0.13,-0.43 -0.13,-0.9 z m 1.1,-1.09 v 0 l 2.4,-0.31 v 0 q 0,-0.01 -0.01,-0.06 v 0 0 q -0.01,-0.04 -0.03,-0.06 v 0 0 q -0.01,-0.02 -0.06,-0.11 v 0 0 q -0.05,-0.09 -0.09,-0.17 v 0 0 Q 197.18,7.83 197.07,7.7 v 0 0 q -0.11,-0.13 -0.34,-0.27 v 0 0 Q 196.52,7.31 196.32,7.3 v 0 0 q -0.43,0 -0.78,0.4 v 0 0 q -0.37,0.4 -0.46,1.06 z m 11.61,-1.13 -0.04,-0.44 v 0 q 0.77,-0.16 2.04,-0.46 v 0 1.58 l 0.07,-0.12 v 0 q 0.02,-0.04 0.04,-0.09 v 0 0 q 0.03,-0.04 0.07,-0.09 v 0 0 q 0.04,-0.05 0.05,-0.09 v 0 0 q 0.07,-0.11 0.23,-0.34 v 0 0 q 0.15,-0.19 0.3,-0.33 v 0 0 q 0.12,-0.13 0.35,-0.26 v 0 0 q 0.2,-0.11 0.39,-0.11 v 0 0 q 0.23,0 0.45,0.1 v 0 0 q 0.19,0.08 0.25,0.17 v 0 l 0.07,0.08 -0.53,1.39 -0.22,-0.08 v -0.19 0 q 0,-0.32 -0.34,-0.32 v 0 0 q -0.36,0 -0.76,0.31 v 0 0 q -0.39,0.31 -0.39,0.68 v 0 2.37 0 q 0,0.39 0.14,0.48 v 0 0 q 0.17,0.09 0.74,0.09 v 0 h 0.61 v 0.45 h -3.35 v -0.45 h 0.26 v 0 q 0.41,0 0.52,-0.08 v 0 0 q 0.1,-0.08 0.1,-0.49 v 0 -3.41 0 q 0,-0.32 -0.03,-0.4 v 0 0 q -0.04,-0.11 -0.16,-0.11 v 0 0 q -0.02,0 -0.1,0.02 v 0 0 q -0.09,0.01 -0.32,0.05 v 0 0 q -0.23,0.04 -0.44,0.09 z" />
  </g>
</svg>
