<?xml version="1.0" encoding="UTF-8" standalone="no"?>
<svg
   xmlns:dc="http://purl.org/dc/elements/1.1/"
   xmlns:cc="http://creativecommons.org/ns#"
   xmlns:rdf="http://www.w3.org/1999/02/22-rdf-syntax-ns#"
   xmlns:svg="http://www.w3.org/2000/svg"
   xmlns="http://www.w3.org/2000/svg"
   xmlns:xlink="http://www.w3.org/1999/xlink"
   id="svg30"
   viewBox="-2.7756e-17 0 576.31 90"
   version="1.1"
   data-v-423bf9ae=""
   height="90"
   width="576.31"
   class="iconLeftSlogan">
  <metadata
     id="metadata10">
    <rdf:RDF>
      <cc:Work
         rdf:about="">
        <dc:format>image/svg+xml</dc:format>
        <dc:type
           rdf:resource="http://purl.org/dc/dcmitype/StillImage" />
        <dc:title></dc:title>
      </cc:Work>
    </rdf:RDF>
  </metadata>
  <!---->
  <!---->
  <!---->
  <g
     id="g14"
     data-v-423bf9ae=""
     transform="matrix(6.11,0,0,6.11,99.109034,1.9891248)">
    <path
       id="path12"
       d="M 0.32,10.6 V 1.93 h 1.93 v 1.84 c 0,0.62 -0.013333,1.2833333 -0.04,1.99 V 5.78 H 2.24 C 2.3933333,5.48 2.8233333,4.7066667 3.53,3.46 3.8966667,2.8266667 4.08,2.3466667 4.08,2.02 V 1.93 H 6.06 V 1.98 C 6.06,2.6066667 5.8,3.29 5.28,4.03 L 4.11,5.74 5.26,8.19 H 6.3 V 8.48 H 5.13 V 8.5 C 5.3166667,8.9066667 5.44,9.15 5.5,9.23 h 0.21 v 0.89 h 0.3 v 1.6 c -0.34,0.0067 -0.59,0.01 -0.75,0.01 H 4.79 c -0.1733333,0 -0.4066667,-0.0033 -0.7,-0.01 V 10.64 H 3.66 V 9.23 H 3.42 L 3.16,8.48 H 5.11 V 8.19 H 3.32 C 3.32,8.17 3.2166667,7.84 3.01,7.2 H 2.99 C 2.8766667,7.4066667 2.6566667,7.7366667 2.33,8.19 H 3.16 V 8.48 H 2.25 V 8.96 H 2.13 v 2.24 h 0.12 v 0.5 c 0,0.02 -0.013333,0.03 -0.04,0.03 H 0.36 c -0.0266667,0 -0.04,-0.01 -0.04,-0.03 V 10.92 H 1.2 V 10.6 Z M 5.31,7.69 h 0.1 c 0.033333,0 0.066667,0.09 0.1,0.27 0.02,0 0.053333,-0.09 0.1,-0.27 h 0.15 v 0.42 c 0,0.02 -0.01,0.03 -0.03,0.03 H 5.66 V 7.88 H 5.65 c 0,0.013333 -0.03,0.1 -0.09,0.26 H 5.51 c -0.033333,0 -0.066667,-0.076667 -0.1,-0.23 H 5.39 v 0.2 c 0,0.02 -0.00667,0.03 -0.02,0.03 H 5.31 C 5.29,8.14 5.28,8.13 5.28,8.11 V 7.72 C 5.28,7.7 5.29,7.69 5.31,7.69 Z M 2.32,8.19 H 1.11 v 0.29 h 1.13 c 0,-0.033333 0.026667,-0.13 0.08,-0.29 z m 1.36,2.54 v -0.02 h 0.1 c 0.013333,0 0.046667,0.03667 0.1,0.11 0.04,-0.07333 0.066667,-0.11 0.08,-0.11 h 0.1 v 0.02 L 3.93,10.92 C 3.95,10.926667 4,11 4.08,11.14 H 3.94 L 3.88,11.01 c -0.066667,0.08667 -0.1033333,0.13 -0.11,0.13 H 3.66 C 3.74,11 3.79,10.926667 3.81,10.92 Z M 6.9,1.96 h 1.93 c 0,0.94 0.1633333,1.7366667 0.49,2.39 0.3466667,0.86 0.5866667,1.54 0.72,2.04 v 0.02 h 0.02 c 0.16,-0.6066667 0.496667,-1.5366667 1.01,-2.79 0.133333,-0.6 0.2,-1.1533333 0.2,-1.66 h 1.81 C 12.966667,2.94 12.83,3.6633333 12.67,4.13 L 11.58,6.59 H 10.92 V 8.28 H 9.93 v 0.33 h 0.99 v 3.12 H 9.05 C 9.03,11.73 9.02,11.72 9.02,11.7 V 10.17 H 8.72 V 7.46 H 9.28 V 7.21 H 8.67 C 8.6233333,7.15 8.2466667,6.3033333 7.54,4.67 7.2466667,4.01 7.1,3.6166667 7.1,3.49 H 7.9 V 3.14 H 7.03 C 6.9433333,2.42 6.9,2.0266667 6.9,1.96 Z M 5.74,3.49 V 3.14 h 1.29 l 0.05,0.35 z m 5.18,5.12 V 8.28 h 0.81 v 0.33 z m 2.5,0.24 V 1.91 h 1.95 v 4.03 h -0.39 v 4.16 h 2.91 v 0.87 h -0.57 v 0.2 h 0.57 v 0.56 h -1.88 v -0.15 h -2.58 c -0.0067,-0.106667 -0.01,-0.19 -0.01,-0.25 V 9.14 h 0.49 V 8.85 Z m 4.47,2.32 v -0.2 h 0.71 v 0.2 z M 19.28,6.8 V 2 h 4.79 v 1.6 c 0,0.02 -0.01,0.03 -0.03,0.03 h -2.85 v 2.11 h 2.55 v 0.02 c 0,0.053333 -0.01,0.3966667 -0.03,1.03 -0.01333,0 -0.02,0.00333 -0.02,0.01 h 0.12 V 7.29 H 21.6 v 2 h -0.59 v 0.2 h 0.59 v 0.61 h 2.5 v 0.22 h -0.19 v 1.2 h -3 v 0.21 H 19.49 V 8.24 H 19.28 V 7.01 H 17.72 V 6.8 Z m 0.81,0 h -0.8 v 0.21 h 0.8 z m 8.98,0.33 -0.78,-5.2 h 1.86 l 0.54,4.93 h 0.52 c 0.0067,-0.046667 0.156667,-1.69 0.45,-4.93 H 34 c 0.3,3.3466667 0.456667,5.0533333 0.47,5.12 h 0.78 c 0.34,-2.9333333 0.53,-4.64 0.57,-5.12 h 1.85 l -0.77,5.2 h -0.14 v 0.96 h -1.4 v 0.25 h 1.1 V 9.8 H 35.4 v 1.29 h -0.28 v 0.56 H 33.93 V 8.48 H 33.15 V 7.34 c 0,-0.1 -0.1,-1.0233333 -0.3,-2.77 h -0.04 v 0.02 l -0.25,2.27 h 0.12 v 3.5 h -1.14 v 1.37 H 30.08 V 10.36 H 29.52 V 7.13 Z m 0.06,0.14 h 0.09 l 0.07,0.22 h 0.02 c 0.02667,-0.1466667 0.05333,-0.22 0.08,-0.22 h 0.06 v 0.02 c -0.06667,0.2266667 -0.106667,0.34 -0.12,0.34 h -0.09 c 0,-0.033333 -0.03667,-0.1533333 -0.11,-0.36 z M 29.11,7.94 V 7.76 h 0.1 V 8 c 0,0.00667 0.02333,0.023333 0.07,0.05 C 29.32,8.0366667 29.34,8.02 29.34,8 V 7.76 h 0.1 v 0.18 c 0,0.086667 -0.03333,0.1433333 -0.1,0.17 h -0.1 c -0.08667,0 -0.13,-0.056667 -0.13,-0.17 z m 0,0.62 V 8.24 h 0.24 c 0.02,0 0.04333,0.023333 0.07,0.07 v 0.06 l -0.03,0.05 c 0.02,0.033333 0.03667,0.09 0.05,0.17 h -0.1 c 0,-0.026667 -0.0033,-0.07 -0.01,-0.13 h -0.12 v 0.13 h -0.06 c -0.02667,0 -0.04,-0.01 -0.04,-0.03 z m 0.22,-0.25 h -0.12 v 0.08 h 0.1 c 0.02,0 0.03,-0.013333 0.03,-0.04 -0.0067,-0.02 -0.01,-0.033333 -0.01,-0.04 z M 29.18,9.04 V 8.72 h 0.26 V 8.8 h -0.16 v 0.05 h 0.11 c 0.02,0.00667 0.03,0.02 0.03,0.04 v 0.04 h -0.14 v 0.15 h -0.07 c -0.02,0 -0.03,-0.013333 -0.03,-0.04 z m 0.1,0.15 c 0.09333,0.02 0.14,0.063333 0.14,0.13 L 29.39,9.33 H 29.35 L 29.29,9.27 h -0.05 c -0.04,0.02 -0.06,0.056667 -0.06,0.11 0,0.08 0.03333,0.12 0.1,0.12 0.04,-0.02 0.06,-0.036667 0.06,-0.05 V 9.43 c -0.05333,0 -0.08,-0.01 -0.08,-0.03 V 9.38 c 0,-0.02 0.01,-0.03 0.03,-0.03 h 0.13 V 9.56 H 29.4 c -0.0067,0 -0.02333,-0.00667 -0.05,-0.02 L 29.26,9.56 H 29.24 C 29.146667,9.5466667 29.1,9.4966667 29.1,9.41 V 9.35 c 0,-0.093333 0.06,-0.1466667 0.18,-0.16 z m -0.17,0.82 V 9.69 h 0.1 v 0.13 h 0.13 V 9.69 h 0.1 v 0.32 c 0,0.02 -0.01333,0.03 -0.04,0.03 H 29.34 V 9.9 h -0.13 v 0.14 h -0.06 c -0.02667,0 -0.04,-0.01 -0.04,-0.03 z m 6.34,-0.13 h 0.1 c 0.02,0.093333 0.03,0.16 0.03,0.2 h 0.01 c 0.03333,-0.1066667 0.05,-0.1733333 0.05,-0.2 h 0.07 c 0.02667,0 0.04667,0.07 0.06,0.21 h 0.02 c 0.02,-0.14 0.04,-0.21 0.06,-0.21 h 0.07 c -0.05333,0.233333 -0.09,0.35 -0.11,0.35 h -0.07 0.07 v 0 c -0.02667,0.12 -0.17,-0.0067 -0.17,0 h -0.09 c -0.02,-0.08667 -0.05333,-0.203333 -0.1,-0.35 z m 0.01,0.5 v -0.02 h 0.09 c 0.02,0 0.04333,0.03333 0.07,0.1 0.01333,0 0.03333,-0.03333 0.06,-0.1 h 0.09 v 0.02 l -0.09,0.15 0.11,0.17 v 0.02 h -0.08 c -0.02667,0 -0.05333,-0.04 -0.08,-0.12 -0.05333,0.08 -0.08667,0.12 -0.1,0.12 h -0.08 c 0,-0.0067 0.04,-0.06667 0.12,-0.18 V 10.53 Z M 37.82,6.64 V 1.96 h 1.94 v 3.89 h 1.95 V 1.96 h 1.64 v 5.55 h -0.67 v 0.24 h 0.67 v 3.98 h -1.61 c -0.02,0 -0.03,-0.01 -0.03,-0.03 V 7.48 h -1.95 v 4.22 c 0,0.02 -0.01333,0.03 -0.04,0.03 H 38.1 V 6.64 Z m 5.53,1.11 V 7.51 h 0.87 v 0.24 z m 1.33,-5.79 h 1.92 c 0,0.94 0.163333,1.7366667 0.49,2.39 0.353333,0.86 0.596667,1.54 0.73,2.04 v 0.02 h 0.01 c 0.166667,-0.6066667 0.506667,-1.5366667 1.02,-2.79 0.133333,-0.6 0.2,-1.1533333 0.2,-1.66 h 1.8 C 50.743333,2.94 50.606667,3.6633333 50.44,4.13 L 49.36,6.59 H 48.7 v 1.69 h -1 v 0.33 h 1 v 3.12 h -1.87 c -0.02,0 -0.03,-0.01 -0.03,-0.03 V 10.17 H 46.5 V 7.46 h 0.56 V 7.21 H 46.45 C 46.403333,7.15 46.026667,6.3033333 45.32,4.67 45.02,4.01 44.87,3.6166667 44.87,3.49 h 0.81 V 3.14 H 44.81 C 44.723333,2.42 44.68,2.0266667 44.68,1.96 Z M 43.51,3.49 V 3.14 h 1.3 l 0.05,0.35 z M 48.7,8.61 V 8.28 h 0.81 v 0.33 z m 2.77,-6.65 h 2 c 0.02667,0 0.24,0.5233333 0.64,1.57 0.03333,0.04 0.453333,1.07 1.26,3.09 h 0.51 V 1.96 h 1.75 v 5.55 h 0.2 v 2.16 h -0.71 v 0.41 h 0.71 v 1.29 H 55.21 V 9.73 H 54.74 C 54.113333,8.2033333 53.69,7.1466667 53.47,6.56 V 4.92 h -0.25 v 5.01 h -0.39 v 1.73 H 51.19 V 7.94 h 0.3 V 7.92 C 51.476667,4.7 51.47,2.7133333 51.47,1.96 Z m 3.87,4.66 H 54.41 V 6.98 H 55.5 C 55.413333,6.74 55.36,6.62 55.34,6.62 Z m 1.35,0 H 55.9 v 0.36 h -0.39 c 0.233333,0.58 0.373333,0.9566667 0.42,1.13 h 0.02 V 8.07 C 55.916667,7.4766667 55.9,7.1133333 55.9,6.98 h 0.79 z m -1.48,5.11 v -0.18 h 3.16 v 0.18 z m 7.07,-9.78 c 1.4,0 2.32,0.49 2.76,1.47 0.253333,0.48 0.38,1.4033333 0.38,2.77 V 6.23 H 64.7 v 0.33 h 0.72 v 3.54 h -0.48 v 1.27 h -0.95 v 0.36 h -3.32 v -0.36 h -0.4 V 10.1 h -0.86 v -1 h 0.51 V 8.57 H 59.41 V 9.1 H 58.2 V 8.57 h 0.92 C 59.106667,7.7766667 59.1,7.1666667 59.1,6.74 V 5.91 c 0,-1.5533333 0.263333,-2.59 0.79,-3.11 0.48,-0.5666667 1.276667,-0.85 2.39,-0.85 z m -1.2,3.37 h 0.02 l -0.02,0.03 v 0.88 h -0.73 v 0.33 h 0.73 c -0.0067,1.4066667 -0.01,2.47 -0.01,3.19 V 10.1 H 62.7 V 9.56 h 0.75 V 9.54 c 0,-0.6666667 -0.0033,-1.5966667 -0.01,-2.79 0,-0.046667 0.0033,-0.17 0.01,-0.37 0,-1.2866667 -0.07333,-2.0766667 -0.22,-2.37 C 63.07,3.7233333 62.783333,3.58 62.37,3.58 h -0.24 c -0.493333,0 -0.8,0.22 -0.92,0.66 -0.05333,0.2133333 -0.09667,0.5733333 -0.13,1.08 z m 4.34,1.24 V 6.23 H 66.6 V 6.56 Z M 65.86,3.57 V 1.93 h 5.75 v 1.64 h -1.9 v 6.77 h 0.86 v 0.2 h -0.86 v 0.75 h -0.52 v 0.26 h 0.37 v 0.18 h -1.75 c -0.02,0 -0.03,-0.01 -0.03,-0.03 V 3.57 Z m 3.83,6.77 h -0.66 v 0.2 h 0.66 z M 70.9,3.57 V 1.93 h 5.74 v 1.64 h -1.9 v 6.77 h 0.86 v 0.2 h -0.86 v 0.75 h -0.52 v 0.26 h 0.37 v 0.18 h -1.75 c -0.02,0 -0.03,-0.01 -0.03,-0.03 V 3.57 Z m 3.82,6.77 h -0.66 v 0.2 h 0.66 z" />
  </g>
  <defs
     id="defs22"
     data-v-423bf9ae="">
    <linearGradient
       gradientTransform="rotate(25)"
       data-v-423bf9ae=""
       id="878b3277-63ac-4b27-bfe1-9d770337e073">
      <stop
         id="stop16"
         offset="0"
         data-v-423bf9ae=""
         stop-color="#e90dda" />
      <stop
         id="stop18"
         offset="1"
         data-v-423bf9ae=""
         stop-color="#15cff1" />
    </linearGradient>
    <linearGradient
       xlink:href="#878b3277-63ac-4b27-bfe1-9d770337e073"
       gradientUnits="userSpaceOnUse"
       x2="32"
       id="linearGradient96" />
  </defs>
  <g
     data-v-423bf9ae=""
     fill="url(#linearGradient96)"
     transform="scale(2.8125)"
     id="999eea4b-a2a0-4db7-885a-d264b6c432bb">
    <path
       id="path24"
       fill="url(#linearGradient96)"
       d="m9.382 8.675h13.943v13.943l8.675 8.675v-31.293h-31.293zm13.236 14.65h-13.943v-13.943l-8.675-8.675v31.293h31.293z" />
  </g>
  <!---->
  <g
     data-v-423bf9ae=""
     transform="matrix(1.7713 0 0 1.7713 109.38 55.961)"
     id="1248e4ed-3d5f-4c46-b052-8bf27633519c" />
</svg>
